<?xml version="1.0" standalone="no"?><!DOCTYPE svg PUBLIC "-//W3C//DTD SVG 1.1//EN" "http://www.w3.org/Graphics/SVG/1.1/DTD/svg11.dtd" ><svg xmlns="http://www.w3.org/2000/svg"><metadata></metadata><defs><font id="Founder:FZSongKeBenXiuKaiS-R-GB	Regular" horiz-adv-x="256"><font-face font-family="FZSongKeBenXiuKaiS-R-GB" font-weight="400" font-stretch="normal" units-per-em="256" panose-1="2 0 0 0 0 0 0 0 0 0" ascent="224" descent="-54" x-height="0" bbox="2 -37 256 216" underline-thickness="12" underline-position="-42" unicode-range="U+005b-9700" /><missing-glyph horiz-adv-x="256" d="M59 151 l-26 -93 l-8 1 l14 98 q2 17 12 18 q10 -1 10 -14 q0 -4 -2 -10 ZM36 20 q-4 -15 -17 -16 q-11 1 -11 14 q4 18 16 19 q14 -2 12 -17 Z" /><glyph glyph-name="" unicode="[" d="M49 -1 l-42 0 l36 183 l41 0 l-2 -13 l-25 0 l-30 -160 l24 0 l-2 -10 Z" /><glyph glyph-name="" unicode="]" d="M48 -1 l-41 0 l2 10 l25 0 l31 160 l-25 0 l2 13 l42 0 l-36 -183 Z" /><glyph glyph-name="" unicode="·" d="M128 105 q14 -1 15 -15 q-1 -15 -15 -16 q-15 1 -16 16 q1 14 16 15 Z" /><glyph glyph-name="" unicode="&#x4e00;" d="M179 102 q21 4 32 11 q3 3 8 -1 l27 -19 q2 -2 0 -5 q-2 -6 -5 -4 q-20 4 -44 3 q-118 -7 -170 -17 q-4 -1 -5 1 q-4 4 -10 16 q-2 2 -1 3 q0 1 3 1 q50 -3 165 11 Z" /><glyph glyph-name="" unicode="&#x4e0b;" d="M133 151 q-2 -16 -2 -33 q-2 -49 -2 -103 q0 -23 -5 -34 q-4 -7 -9 -1 q-7 11 -9 16 q-2 4 1 6 q3 5 4 16 q3 21 3 39 q1 15 0 56 q1 36 -5 47 q-66 -4 -87 -6 q-3 -1 -5 3 q-5 8 -7 13 q-1 3 2 2 q18 -2 63 -2 q46 1 86 4 q50 3 61 8 q5 2 8 0 q6 -4 16 -15 q3 -6 -4 -7 q-23 4 -121 0 l10 -5 q3 -1 2 -4 ZM136 105 q-3 2 -2 3 q1 1 5 0 q1 0 3 -1 q35 -10 45 -15 q6 -4 5 -11 q0 -6 -6 -18 q-2 -4 -3 -3 q-2 0 -5 4 q-18 24 -42 41 Z" /><glyph glyph-name="" unicode="&#x4e0e;" d="M189 112 q3 2 5 -1 q4 -2 12 -10 q4 -3 6 -5 q3 -2 1 -4 q-7 -11 -9 -25 q-12 -47 -24 -69 q-8 -15 -21 -22 q-5 -4 -8 2 q-3 13 -12 25 q-1 2 0 3 q1 1 2 0 q0 0 1 -1 q10 -5 14 -5 q1 0 4 0 q1 0 1 0 q21 27 27 87 q0 5 -4 5 q-43 0 -105 -9 q-6 0 -9 2 q-3 2 -9 8 q-1 1 -2 2 q-1 1 -1 3 q1 1 3 1 q5 -1 18 -1 q3 0 5 0 q12 75 9 104 q-1 3 1 2 q2 -1 6 -3 q4 -1 10 -5 q3 -1 2 -6 q-9 -60 -14 -91 q28 1 63 5 q18 3 28 8 ZM162 42 q-62 -1 -129 -11 q-4 0 -7 2 q-4 4 -9 11 q-1 3 2 3 q76 2 131 11 q4 0 7 -1 q1 -1 5 -6 q-2 3 2 -3 q2 -3 2 -4 q-1 -2 -4 -2 ZM194 154 q3 -3 7 -7 q3 -4 -2 -5 q-41 0 -77 -5 q-4 0 -6 2 l-3 7 q-1 2 1 2 q53 4 74 7 q5 1 6 -1 Z" /><glyph glyph-name="" unicode="&#x4e27;" d="M190 160 q-26 0 -62 -3 q0 -5 -1 -15 q-1 -44 -2 -54 q31 2 55 5 q13 2 22 3 q4 2 7 -1 q5 -5 7 -11 q1 -2 1 -3 q-1 -1 -3 -1 q-42 1 -103 -3 q15 -18 32 -33 q25 18 28 30 q1 5 6 1 q4 -3 10 -10 q1 -1 1 -1 q3 -3 -1 -6 q-6 -3 -18 -9 q-14 -6 -21 -10 q20 -17 33 -26 q18 -13 60 -17 q4 -1 4 -2 q1 -2 -2 -3 q-18 -6 -40 -10 q-10 -3 -14 2 q-44 38 -89 93 l-28 -3 q2 0 6 -2 q4 -1 5 -2 q3 -2 3 -8 q0 -15 -2 -61 q26 13 40 21 q5 2 6 1 q0 -1 -4 -5 q-10 -9 -53 -39 q-7 -5 -9 -7 q-5 -3 -8 1 q-3 5 -8 14 q-2 3 -1 4 q0 1 3 0 q6 -2 15 2 l4 1 q2 53 1 68 q-1 6 -3 10 q0 1 0 1 q-1 1 -1 1 q-4 -1 -13 -2 q-15 -2 -19 -3 q-5 -2 -8 2 q-1 1 -4 6 q-1 1 -2 2 q-1 3 0 3 q0 1 3 1 q28 0 88 5 q1 8 1 34 q1 24 1 35 q-43 -4 -54 -6 q-1 0 -3 2 q-2 1 -6 8 q-1 3 1 3 q31 0 62 3 q0 4 -1 11 q0 5 0 7 q0 15 -6 26 q-1 2 0 3 q0 1 2 0 q11 -3 18 -7 q3 0 3 -6 q0 -2 0 -10 q-1 -15 -1 -23 q40 4 50 7 q4 1 7 -2 q1 -1 3 -4 q3 -4 3 -5 q1 -3 -1 -3 ZM131 105 q30 26 33 46 q1 3 4 0 q2 -3 7 -11 q2 -4 3 -6 q1 -3 -2 -5 q-20 -16 -43 -27 q-2 -1 -3 0 q-1 2 1 3 ZM83 99 q-11 21 -24 33 q-3 3 -2 4 q1 1 5 0 q10 -2 25 -10 q7 -2 5 -11 q-1 -8 -4 -14 q-3 -5 -5 -2 Z" /><glyph glyph-name="" unicode="&#x4e60;" d="M82 133 q-1 2 2 3 q23 -5 39 -12 q6 -2 4 -8 q-4 -11 -8 -17 q-3 -3 -6 0 q-9 16 -31 34 ZM151 90 q1 1 2 0 q1 -1 0 -3 q-27 -23 -92 -65 q-2 0 -4 1 q-5 4 -7 9 q-1 2 0 3 q8 13 13 31 q1 2 2 0 q1 -1 2 -5 q1 -3 1 -5 q1 -2 4 -2 q36 13 79 36 ZM157 181 q19 2 29 8 q5 3 9 0 q1 -1 4 -3 q3 -1 9 -7 q4 -1 1 -7 q-5 -8 -5 -21 q-6 -81 -17 -142 q-4 -21 -18 -30 q-7 -5 -10 3 q-7 14 -23 28 q-2 3 2 4 q28 -9 29 1 q15 58 17 145 q0 9 -9 9 q-63 -3 -113 -14 q-3 -1 -6 1 q0 0 -1 1 q-1 1 -4 6 q-2 3 -3 4 q-1 2 -1 3 q1 1 3 1 q44 1 107 10 Z" /><glyph glyph-name="" unicode="&#x4e71;" d="M122 4 q-26 0 -56 -4 q0 -1 0 -4 q-2 -10 -9 -14 q-8 3 -8 13 q6 42 -7 65 q-2 3 2 2 q10 -2 14 -5 q14 3 21 3 q0 2 0 7 q2 21 1 34 q-2 0 -8 -1 q-35 -7 -47 -11 q-2 0 -5 1 q1 0 -1 1 q-4 4 -7 8 q-1 2 0 2 q0 1 2 1 q23 1 66 9 q0 2 0 5 q0 18 -6 28 q-15 -3 -31 -5 q-3 -1 -3 1 q0 2 3 3 q34 10 52 24 q7 5 7 12 q0 3 3 2 q3 -2 8 -6 q7 -5 12 -9 q3 -3 -1 -5 q-16 -9 -44 -16 q9 -3 17 -8 q1 -2 1 -5 q-2 -10 -2 -18 q1 0 4 0 q15 3 27 8 q3 2 5 -1 q4 -4 8 -8 q2 -3 -2 -4 q-6 0 -24 -2 q-12 -2 -19 -3 q0 -22 -3 -41 q20 4 22 6 q3 3 7 0 q6 -4 11 -9 q3 -4 2 -8 q-8 -11 -14 -38 q3 -3 4 -6 q1 -1 1 -3 q-1 -1 -3 -1 ZM242 2 q1 -8 -8 -8 q-26 -2 -54 0 q-26 2 -27 27 q-1 58 0 101 q3 57 -1 72 q-2 3 -1 4 q1 1 4 -1 q5 -3 15 -10 q4 -2 5 -3 q3 -3 1 -9 q-7 -22 -9 -71 q0 -4 0 -12 q-2 -36 1 -69 q0 -13 16 -15 q14 -1 24 -1 q10 1 16 10 q6 12 12 28 q2 6 3 6 q1 0 2 -6 q1 -10 1 -43 ZM64 48 q2 -20 2 -39 q4 1 13 2 q19 3 26 4 q6 21 7 37 q0 4 -5 4 q-3 0 -8 -1 q-19 -4 -35 -7 Z" /><glyph glyph-name="" unicode="&#x5165;" d="M75 175 q-2 0 -2 0 q-1 1 0 3 q2 7 6 6 q6 -1 20 -2 q10 -1 15 -1 q6 -1 7 -6 q19 -59 54 -102 q30 -38 75 -47 q5 -2 6 -4 q0 -2 -5 -2 q-4 -1 -11 -2 q-19 -3 -41 -5 q-5 -1 -8 2 q-41 47 -63 94 q-46 -69 -118 -90 q-3 -1 -3 0 q-1 2 2 3 q67 37 111 106 q-1 2 -2 5 q-4 11 -11 29 q-1 10 -32 13 Z" /><glyph glyph-name="" unicode="&#x5185;" d="M138 196 q3 -1 3 -6 q-1 -24 -3 -44 l19 3 q15 3 32 9 q2 2 6 0 q8 -6 18 -15 q1 -2 1 -5 q-4 -8 -4 -23 q-2 -34 -2 -102 q1 -24 -14 -39 q-3 -5 -7 1 q-15 20 -22 28 q-1 1 -1 2 q0 1 2 1 q8 -1 17 -3 q3 -1 5 3 q4 48 3 124 q-2 11 -11 10 q-9 -1 -30 -3 q-9 -1 -14 -2 q-8 -60 -47 -88 q-2 -1 -4 0 q-1 2 1 4 q25 32 32 82 l-41 -4 q1 -73 -3 -130 q0 -11 -5 -16 q-3 -3 -7 1 q-5 10 -7 15 q-1 1 0 5 q5 39 6 79 q1 30 -5 60 q-1 2 0 3 q1 1 3 0 q6 -3 14 -8 q23 2 46 5 q1 13 1 26 q-2 21 -6 33 q-1 2 0 3 q1 1 4 0 q11 -4 20 -9 ZM156 49 q-5 26 -20 47 q-1 2 0 3 q2 0 3 -1 q32 -15 33 -25 q2 -9 -10 -25 q-4 -4 -6 1 Z" /><glyph glyph-name="" unicode="&#x535a;" d="M126 66 q-7 2 -8 9 q3 20 -1 51 q-1 12 -4 18 q-1 3 2 2 q5 -1 11 -6 q4 0 11 2 q10 1 15 2 l0 20 q-24 -4 -30 -6 q-2 0 -5 1 q-3 3 -6 7 q-1 2 0 2 q0 1 2 1 q18 0 38 3 q0 23 -7 36 q-2 3 1 2 q8 -2 20 -8 q3 -1 2 -5 q-1 -6 -1 -23 q2 1 6 1 q3 1 5 1 q1 0 4 1 q9 2 11 4 q4 2 6 0 q3 -3 7 -9 q1 -2 1 -3 q-1 -1 -4 -1 q-6 0 -31 -2 q2 1 -5 0 l0 -20 q17 3 23 5 q6 2 9 -1 q4 -3 10 -8 q2 -1 1 -6 q-1 -4 -3 -16 q-7 -35 -9 -51 q-1 -3 -5 -1 q-9 10 -7 18 q6 27 7 53 q0 2 -4 2 q-3 0 -11 -1 q-7 -1 -11 -2 l-1 -16 q7 0 10 2 q4 1 5 -2 q2 -1 2 -3 q0 1 1 -1 q1 -2 1 -2 q-1 0 -3 -1 l-16 -2 l-1 -17 q8 2 11 3 q3 1 5 -2 q2 -2 2 -4 q1 -2 0 -2 q0 -1 -2 -1 q-8 0 -16 -2 q0 -4 0 -9 q-1 -12 -7 -13 q-6 3 -7 15 q1 2 1 5 q-9 -1 -16 -4 l-5 7 q0 -6 0 -10 q0 -12 -4 -13 ZM99 122 q5 1 6 -2 q4 -6 4 -8 q0 -2 -5 -2 q-7 -1 -29 -3 q-2 -76 -2 -112 q0 -10 -3 -15 q-1 -4 -6 -1 q-5 5 -7 13 q-1 4 0 8 q5 37 5 106 q-14 -2 -34 -5 q-5 -2 -5 1 q-3 3 -5 8 q-2 2 2 2 q3 0 13 1 q19 2 29 3 q0 18 0 36 q-2 23 -8 36 q-1 2 0 3 q1 0 3 -1 q12 -6 19 -11 q3 -3 2 -6 q-1 -4 -1 -20 q-1 -12 -1 -19 l0 -16 q8 1 20 3 q2 1 3 1 ZM235 60 q1 -1 4 -5 q2 -3 3 -4 q2 -4 -3 -4 q-17 0 -25 -1 q-6 0 -24 -2 q13 2 -4 0 q0 -8 1 -26 q0 -18 0 -26 q0 -15 -9 -24 q-4 -5 -7 0 q-4 7 -16 20 q-2 2 -2 3 q1 2 3 1 q15 -4 16 1 q2 28 0 50 q-42 -4 -70 -9 q-3 0 -5 1 q-5 5 -7 8 q-1 2 -1 2 q1 1 2 1 q18 0 80 6 q-1 9 -4 15 q-2 3 2 2 q2 0 5 -1 q7 -1 10 -2 q3 -1 3 -4 q0 -5 0 -8 q8 0 16 2 q20 2 24 6 q4 2 8 -2 ZM209 199 q26 -15 26 -23 q0 -2 -9 -14 q-4 -3 -6 1 q-4 16 -14 32 q-1 3 0 4 q0 1 3 0 ZM152 94 q0 9 0 17 q-14 -2 -18 -3 l-4 5 q0 -12 0 -22 q8 2 22 3 ZM152 119 q0 9 0 17 q-3 0 -10 -2 q-9 -1 -13 -2 q0 -9 0 -16 q5 1 17 2 q-3 0 6 1 ZM127 33 q18 -8 22 -14 q1 -9 -5 -17 q-3 -2 -5 1 q-6 16 -14 27 q-1 2 0 3 q0 1 2 0 Z" /><glyph glyph-name="" unicode="&#x53d1;" d="M100 67 q-2 1 -2 2 q0 1 2 2 q19 2 29 -14 q2 -1 5 -5 q3 -3 4 -5 q11 18 18 43 q0 3 -3 2 q-23 -4 -40 -10 q-3 0 -4 1 q-2 2 -4 4 q-33 -67 -87 -88 q-6 -3 -7 -2 q0 1 5 4 q62 49 87 119 q-25 -3 -48 -9 q-3 -1 -7 1 q-2 2 -5 7 q-1 2 -2 3 q-1 1 -1 2 q1 1 3 1 q8 0 18 1 q9 32 7 47 q0 3 1 3 q1 1 3 0 q6 -3 10 -6 q4 -2 3 -6 q-3 -10 -10 -37 q1 0 3 0 q10 1 28 4 q16 43 11 69 q-1 3 1 4 q1 0 3 -2 q4 -3 15 -14 q3 -3 1 -7 q-1 -4 -4 -13 q-4 -17 -7 -25 l-3 -10 q6 1 18 3 q9 1 14 2 q18 3 26 7 q5 3 9 -1 q8 -8 9 -10 q2 -3 2 -4 q-1 -1 -4 -1 q-3 0 -11 0 q-10 -1 -15 -1 q-26 -2 -52 -6 q-5 -15 -11 -27 q30 1 50 11 q1 2 4 0 q2 -2 9 -6 q4 -3 5 -4 q1 -1 1 -4 q-6 -11 -11 -22 q-7 -19 -17 -34 q39 -40 93 -50 q3 -1 3 -2 q0 -2 -3 -2 q-18 -4 -44 -6 q-7 -2 -11 3 q-23 21 -42 44 q-1 2 -3 3 q-24 -30 -83 -43 q-3 -1 -3 0 q0 1 2 3 q52 20 74 52 q-7 7 -13 15 q-12 12 -19 14 ZM174 186 q-1 2 -1 3 q1 1 3 0 q26 -10 39 -20 q1 -2 1 -5 q-1 -1 -4 -7 q-3 -5 -4 -7 q-3 -4 -7 1 q-10 21 -27 35 Z" /><glyph glyph-name="" unicode="&#x53ef;" d="M15 171 q29 -2 49 -1 q39 0 119 9 q19 2 38 7 q3 2 8 -1 q7 -3 16 -11 q2 -2 1 -3 q0 -1 -2 -1 q-21 -1 -71 -4 q-9 -1 -14 -1 q2 -1 6 -3 q9 -4 12 -6 q4 -3 4 -9 q-2 -20 -2 -41 q0 -50 0 -92 q0 -18 -10 -34 q-3 -5 -7 0 q-2 2 -7 8 q-13 14 -20 20 q-1 4 2 4 q4 0 18 -2 q3 0 5 3 q3 15 3 38 q2 37 0 68 q0 27 -7 45 q0 1 0 1 q-7 0 -20 -1 q-41 -3 -60 -5 q-24 -3 -7 -1 q-17 -2 -37 -4 q-4 -2 -8 2 q-1 1 -4 5 q-4 4 -7 7 q-1 1 -1 2 q1 1 3 1 ZM79 51 q-3 -4 -7 0 q-3 4 -4 9 q-1 2 -1 4 q0 26 -2 44 q0 10 -4 21 q0 3 2 2 q8 -3 15 -6 q4 0 12 1 q13 1 17 2 q13 1 19 6 q1 0 2 0 q2 1 3 -1 q5 -4 11 -10 q2 -2 0 -4 q-5 -10 -12 -40 q3 -3 6 -6 q3 -5 -2 -6 q-28 0 -51 -3 q0 -6 -4 -13 ZM120 119 q-13 0 -39 -2 q0 -15 2 -43 q3 0 9 1 q17 2 24 2 q3 20 5 40 q1 3 -1 2 Z" /><glyph glyph-name="" unicode="&#x542f;" d="M109 -23 q-1 -2 -2 -2 q-2 0 -3 2 q-2 3 -5 10 q0 2 0 5 q1 12 -1 46 q0 1 0 4 q-2 17 -5 24 q-1 1 0 2 q1 1 3 0 q5 -2 15 -7 q33 3 55 6 q19 1 28 7 q2 2 5 0 q1 0 2 -1 q11 -6 15 -10 q4 -3 1 -8 q-5 -9 -14 -38 q-2 -7 -3 -10 q3 -3 5 -5 q3 -2 2 -3 q-1 -2 -5 -1 q-55 0 -87 -4 l0 -1 q0 -8 -6 -16 ZM170 164 q12 2 19 6 q4 3 7 -1 q1 -1 4 -5 q3 -4 4 -5 q3 -4 0 -7 q-10 -9 -17 -30 q4 -3 7 -7 q1 -3 0 -3 q0 -1 -2 -1 q-54 -3 -96 -10 q-19 -76 -84 -106 q-4 -2 -5 -1 q0 2 3 5 q66 52 74 121 q0 2 0 6 q1 10 0 13 q0 1 0 1 l-1 0 q-4 -2 -7 1 q-5 5 -7 9 q-2 3 -2 4 q1 2 4 1 q9 -1 22 0 q54 5 77 9 ZM190 57 q-27 -1 -76 -6 l1 -47 q5 0 18 1 q38 1 51 3 q6 24 9 45 q0 4 -3 4 ZM175 154 q-43 -3 -84 -12 q1 -1 3 -2 q2 -1 7 -5 q3 -3 2 -7 q-1 -3 -2 -9 q-2 -5 -2 -7 q44 4 75 11 q1 2 2 7 q3 14 3 18 q1 6 -4 6 ZM149 167 q-3 -4 -5 -4 q-2 0 -4 4 q-8 22 -19 34 q-2 2 -1 3 q1 2 4 1 q14 -2 22 -6 q9 -4 7 -17 q-1 -7 -4 -15 Z" /><glyph glyph-name="" unicode="&#x548c;" d="M142 121 q-4 -1 -14 -2 q-10 -2 -15 -3 q0 -4 0 -8 q15 -10 28 -20 q5 -2 2 -10 q-1 -5 -4 -13 q-2 -5 -3 -7 q-2 -3 -4 -2 q-2 0 -3 4 q-3 21 -16 43 q0 -8 0 -5 q-2 -54 -4 -81 q-1 -20 -6 -29 q-3 -4 -6 0 q-5 9 -19 18 q-3 2 -3 3 q0 2 3 2 q6 0 11 0 q5 1 5 3 q6 30 6 81 q-38 -58 -92 -70 q-5 -1 -6 0 q0 2 5 4 q48 23 87 83 q-20 -3 -51 -10 q-2 -2 -5 1 q-1 1 -6 8 q-1 3 2 3 q19 0 65 10 l0 14 q0 12 -4 19 q-4 -1 -11 -4 q-12 -4 -18 -5 q-4 -1 -5 0 q-1 1 3 3 q27 13 45 26 q7 6 5 18 q-1 3 0 4 q1 1 3 -1 q8 -4 17 -15 q5 -6 0 -10 q-14 -7 -32 -13 q2 -1 5 -3 q4 -2 5 -3 q3 -1 2 -7 l0 -20 q4 1 9 3 q7 1 10 2 q2 2 5 0 q3 -3 5 -7 q1 -2 1 -3 q0 -1 -2 -1 ZM166 32 q0 -2 -1 -2 q0 -1 -3 0 q-6 4 -9 8 q-2 2 -1 5 q2 5 2 28 q0 22 -1 37 q0 9 -2 15 q0 3 2 2 q1 0 2 -1 q4 -1 5 -2 q11 1 49 7 q6 1 13 3 q-1 0 1 1 q3 2 7 0 q5 -5 10 -10 q3 -3 -1 -9 q-3 -4 -6 -15 q-4 -16 -13 -43 q2 -3 6 -7 q2 -3 1 -4 q0 -1 -3 -1 q-26 1 -57 -2 l-1 -10 ZM212 118 q-16 0 -44 -4 q0 -12 -1 -35 q0 -19 0 -27 q11 0 27 2 q7 2 13 3 q1 3 2 10 q7 33 9 44 q2 7 -6 7 Z" /><glyph glyph-name="" unicode="&#x578b;" d="M44 170 q-1 3 2 3 q46 2 88 13 q2 0 3 -1 q2 -2 4 -5 q2 -2 3 -3 q1 -3 -2 -4 q-14 0 -32 -3 q5 -1 9 -4 q3 -1 3 -8 q-1 -12 -1 -22 q2 0 4 1 q13 2 17 4 q4 2 6 -1 q3 -2 6 -8 q1 -2 1 -2 q-1 -1 -2 -1 q-12 0 -33 -3 q0 -21 0 -40 q-1 -13 -8 -15 q-7 4 -7 15 q0 3 1 11 q1 16 2 27 q-12 -1 -24 -3 q-5 -56 -50 -72 q-3 -2 -5 -1 q-1 2 2 4 q35 23 38 67 q-17 -3 -41 -8 q-3 -1 -5 1 q-4 6 -7 9 q-1 2 0 2 q0 1 2 1 q17 0 52 5 q1 6 1 14 q0 11 -3 21 q-6 -1 -11 -3 q-3 0 -5 1 q-5 3 -8 8 ZM189 3 q17 1 32 6 q6 3 10 -2 q7 -7 10 -9 q3 -3 1 -5 q-3 -5 -6 -3 q-5 1 -23 2 q-8 1 -12 1 q-118 -2 -172 -12 q-6 -1 -9 2 q0 0 -1 1 q-3 4 -5 9 q-1 1 -1 2 q1 1 3 1 q23 -1 106 4 q0 18 0 31 q-7 -1 -22 -2 q-20 -2 -28 -3 q-3 -1 -6 2 q-3 3 -5 9 q-3 3 2 2 q10 0 26 0 q6 0 25 1 q5 1 8 1 q-1 20 -4 24 q-1 3 0 4 q1 2 3 1 q1 0 2 -1 q9 -1 13 -4 q5 -1 3 -7 q0 -1 0 -4 q-1 -7 -1 -12 q8 1 5 1 q35 3 44 5 q4 1 7 -2 q1 -1 3 -4 q2 -3 3 -4 q2 -4 -3 -4 q-21 1 -59 -2 q-1 -11 -1 -32 q11 0 35 2 q11 1 17 1 ZM193 201 q-1 3 -1 4 q1 1 4 -1 q7 -2 14 -7 q4 -1 2 -5 q-1 -10 -1 -21 q0 -32 0 -89 q2 -15 -3 -25 q-2 -3 -4 -3 q-2 0 -4 3 q-7 12 -21 21 q-3 2 -3 3 q1 2 4 1 q6 -1 11 -1 q4 0 5 6 q2 41 0 88 q0 18 -3 26 ZM156 167 q-1 2 -1 2 q1 1 4 0 q2 -1 6 -3 q3 -1 5 -2 q3 -1 2 -4 q1 -8 1 -58 q-1 -4 -4 -2 q-2 2 -8 5 q-2 2 -2 5 q2 31 0 46 q-1 4 -2 7 q0 3 -1 4 ZM104 169 q-6 -1 -17 -2 q-9 -2 -14 -2 q2 -1 4 -2 q5 -3 7 -5 q3 -1 2 -5 q0 -4 -1 -12 q0 -7 -1 -11 q12 3 24 4 l0 2 q0 20 -4 33 Z" /><glyph glyph-name="" unicode="&#x590d;" d="M158 74 q1 -1 5 -4 q4 -3 5 -4 q4 -3 1 -6 q-12 -23 -28 -40 q24 -16 53 -27 q18 -9 47 -12 q4 -1 5 -3 q0 -2 -4 -3 q-14 -4 -37 -8 q-4 -2 -11 3 q-27 16 -61 42 q-31 -27 -83 -42 q-8 -2 -9 -1 q-1 2 6 5 q51 24 74 47 q-15 12 -25 22 q-16 -17 -41 -34 q-5 -2 -6 -1 q0 1 4 4 q26 26 40 51 q4 6 3 14 q-1 4 0 5 q1 1 4 0 q1 -1 5 -3 q6 -3 8 -5 q4 -1 1 -6 l-2 -3 q1 0 2 0 q12 1 26 4 q7 0 12 5 q4 2 6 0 ZM101 153 q1 0 1 -1 q16 1 31 4 q23 4 29 7 q2 2 6 0 q4 -4 7 -7 q2 -2 0 -6 q-3 -9 -2 -19 q0 -6 -1 -24 q0 -8 0 -10 q-3 -17 -8 -17 q-6 3 -14 14 q-7 -1 -28 -2 q-15 -1 -21 -1 l0 -5 q0 -4 -4 -3 q0 0 -2 1 q-6 2 -7 4 q-3 1 -1 7 q5 34 0 58 q-1 2 0 3 q1 1 3 0 q5 -1 11 -3 ZM97 215 q5 -3 16 -14 q3 -2 1 -6 q-3 -4 -6 -10 q45 5 70 12 q3 0 5 -1 q1 -1 4 -5 q2 -3 3 -4 q1 -2 1 -3 q-1 -1 -4 -1 q-28 -2 -85 -8 q-20 -30 -57 -48 q-2 -1 -3 0 q0 2 2 3 q34 29 44 55 q8 15 6 29 q-1 2 0 2 q2 0 3 -1 ZM142 132 q4 0 5 -3 q3 -8 -2 -7 q-11 -2 -43 -4 q0 -11 0 -20 q16 2 44 6 q5 2 9 -5 q2 0 2 2 q1 9 1 46 q-1 3 -5 3 q-15 -2 -32 -5 q-2 0 -6 -1 q-8 -1 -12 -1 q0 -2 0 -6 q-1 -7 -1 -10 q16 1 40 5 ZM107 56 q-1 -1 -2 -3 q-2 -2 -3 -3 q12 -10 26 -21 q12 13 18 26 q2 4 1 5 q0 1 -4 0 q-2 0 -7 -1 q-21 -1 -29 -3 Z" /><glyph glyph-name="" unicode="&#x5927;" d="M37 107 q-2 2 -1 3 q0 1 3 1 q41 0 77 4 q1 11 1 49 q-2 27 -8 38 q-2 3 -1 3 q2 1 5 0 q2 -1 7 -3 q11 -5 15 -8 q5 -2 3 -7 q-3 -12 -3 -31 q0 -9 -1 -30 q-1 -7 -1 -10 q27 4 39 6 q13 1 21 6 q4 3 7 1 q7 -7 13 -15 q3 -5 -4 -5 q-19 1 -77 -3 q0 -1 0 -3 q-1 -2 -1 -3 q0 -3 0 -4 q31 -44 56 -69 q23 -22 58 -31 q5 -1 5 -3 q-1 -2 -6 -3 q-5 -1 -23 -2 q-12 -1 -17 -1 q-8 0 -11 4 q-27 29 -65 87 q-15 -73 -93 -96 q-9 -2 -10 -1 q0 1 8 5 q74 37 81 111 q1 4 1 7 q-42 -3 -60 -8 q-6 -2 -9 2 q0 0 -1 1 q-6 6 -8 8 Z" /><glyph glyph-name="" unicode="&#x5b66;" d="M146 73 l0 -8 q8 1 22 3 q24 3 31 4 q13 3 24 7 q5 3 9 0 q6 -7 10 -13 q2 -4 0 -5 q-1 -2 -5 -2 q-8 1 -36 1 q-3 0 -12 -1 q-27 -2 -43 -4 q1 -19 1 -51 q0 -6 -2 -12 q-5 -14 -15 -26 q-4 -3 -6 1 q-5 12 -16 24 q-3 2 -3 3 q1 1 5 1 q3 0 9 0 q8 0 10 6 q2 28 2 52 q-51 -5 -92 -14 q-5 0 -7 3 q-5 5 -8 11 q-1 2 0 3 q1 1 3 0 q4 -1 16 -1 q14 1 56 5 q21 2 31 3 l0 2 q0 10 -7 17 q-1 2 -1 3 q0 1 2 1 q2 0 7 -2 q5 -1 7 -2 q3 5 10 20 q1 2 1 3 q2 2 -3 2 q-30 -4 -54 -10 q-3 -2 -6 1 q0 0 -1 1 q0 1 -1 2 q-3 4 -4 7 q-1 2 -1 3 q0 0 4 0 q30 -2 74 10 q3 2 5 -1 q2 -1 8 -7 q2 -2 0 -5 q-2 -3 -7 -9 q-12 -17 -18 -23 q0 0 1 -1 q0 -1 0 -2 ZM194 143 q-63 -1 -127 -12 q-7 -24 -19 -39 q-4 -4 -7 0 q-3 2 -6 8 q-3 4 2 8 q14 14 15 37 q0 5 4 3 q2 -1 5 -3 q4 -3 5 -4 q46 7 84 9 q16 27 22 41 q0 1 0 3 q2 7 1 13 q0 2 1 3 q1 0 2 -1 q2 -1 6 -4 q9 -7 13 -11 q3 -2 1 -5 q-14 -16 -37 -38 l31 3 q9 0 18 5 q4 2 6 -1 q6 -7 16 -19 q4 -7 -2 -9 q-10 0 -36 -4 q-3 0 -3 1 q0 1 2 3 q1 1 3 4 q2 3 3 4 q2 5 -3 5 ZM109 203 q-1 2 0 3 q1 1 3 0 q11 -5 21 -14 q5 -3 4 -10 q0 -10 -5 -19 q-5 -5 -7 1 q-3 17 -16 39 ZM69 186 q-1 2 -1 3 q1 1 3 0 q12 -3 23 -9 q6 -2 5 -8 q0 -12 -3 -18 q-3 -5 -6 -1 q-7 18 -21 33 Z" /><glyph glyph-name="" unicode="&#x5b9e;" d="M200 62 q19 1 28 6 q4 3 7 -1 q8 -9 11 -15 q1 -2 1 -4 q-1 -1 -3 -1 q-8 1 -53 1 q-24 -1 -6 0 q-18 -1 -47 -4 q-19 -49 -83 -76 q-3 -1 -5 0 q-1 1 2 3 q51 33 69 72 q-44 -4 -79 -10 q-5 -1 -11 2 q-1 1 -6 5 q-5 4 -7 6 q-1 1 -1 3 q0 1 2 0 q12 -1 29 0 q39 2 79 6 q4 12 7 25 q9 43 -1 61 q-1 2 0 3 q1 2 3 1 q15 -6 21 -10 q2 -2 2 -6 q-1 -4 -2 -12 q-3 -13 -5 -25 q-3 -19 -9 -36 l57 6 ZM121 207 q-1 5 3 4 q4 -1 12 -3 q8 -3 12 -4 q3 -1 2 -6 q-4 -12 -9 -28 q11 1 32 3 q22 2 32 3 q5 0 6 -3 q8 -10 16 -25 q1 -5 -2 -5 q-4 -1 -15 -3 q-16 -4 -22 -5 q-2 -1 -2 1 q-1 1 1 3 q0 0 1 1 q8 10 11 17 q1 3 -2 3 q-48 3 -107 -7 q-3 -1 -5 1 q-5 2 -8 5 l-1 -2 q-12 -23 -16 -36 q-3 -4 -6 -15 q-1 -2 -1 -3 q-2 -4 -5 -1 q-5 3 -8 8 q-1 5 0 8 q6 9 12 26 q6 19 5 31 q0 3 1 4 q2 1 4 -1 q10 -8 14 -12 q1 -2 1 -2 q14 1 47 4 q-22 -2 8 1 q-2 24 -11 38 ZM201 -14 q-9 -9 -11 -10 q-2 -2 -4 -2 q-1 0 -2 3 q-5 17 -35 47 q-3 2 -2 3 q1 1 4 0 q32 -14 50 -33 q3 -4 0 -8 ZM103 67 q-1 -5 -3 -5 q-3 0 -5 4 q-9 20 -19 27 q-2 2 -1 3 q0 1 4 0 q3 -1 14 -5 q5 -1 7 -2 q6 -1 5 -6 q1 -7 -2 -16 ZM114 105 q-2 -3 -4 -3 q-2 0 -3 3 q-8 16 -20 26 q-3 2 -3 3 q1 1 6 0 q14 -4 24 -9 q5 -2 4 -8 q-1 -7 -4 -12 Z" /><glyph glyph-name="" unicode="&#x5ba2;" d="M103 158 q7 -3 17 -8 q3 0 2 -4 q-4 -7 -7 -13 q14 1 25 4 q3 1 8 3 q2 1 3 1 q2 2 5 0 q1 -1 6 -4 q3 -2 4 -3 q5 -4 0 -7 q-3 -2 -10 -10 q-3 -3 -4 -4 q-10 -13 -21 -24 q31 -20 64 -35 q20 -10 51 -17 q3 0 3 -1 q0 -1 -2 -2 q-3 -2 -27 -7 q-4 -2 -6 -2 q-5 -1 -8 1 q-44 29 -82 55 q-22 -22 -42 -38 q-29 -23 -67 -28 q-3 0 -3 1 q-1 2 1 3 q55 22 100 70 q-11 8 -20 15 q-11 -12 -26 -23 q-3 -2 -5 -1 q-1 1 1 3 q25 30 32 43 q10 18 5 29 q-1 3 3 3 ZM166 -12 q-4 0 -32 -2 q-25 -3 -33 -3 q0 -3 -1 -8 q0 -4 0 -6 q-3 -4 -6 -1 q-8 11 -7 17 q5 38 -4 55 q-1 3 2 2 q3 0 7 -2 q5 -1 7 -2 q1 0 1 0 q1 -1 1 -1 q12 1 33 4 q6 1 8 1 q11 1 15 4 q4 2 7 -1 q6 -4 10 -9 q4 -2 1 -5 q-7 -7 -12 -33 q0 -1 1 -1 q0 -1 0 -1 q5 -6 2 -8 ZM53 174 q3 -2 6 -6 q1 -1 2 -2 q4 0 15 1 q30 1 47 3 q-3 24 -18 37 q-3 3 -2 4 q1 1 5 0 q14 -4 26 -8 q4 -1 4 -9 q0 -7 -3 -22 q10 1 28 3 q9 1 13 1 q18 2 23 4 q4 2 6 -1 q7 -7 13 -16 q4 -6 -1 -7 q-16 -5 -28 -10 q-3 -1 -5 -1 q-1 1 0 4 q8 10 9 16 q1 3 -4 3 q-48 -3 -90 -9 q-23 -3 -37 -1 q0 -1 -1 -5 q1 2 -1 -2 q-5 -19 -13 -31 q-3 -5 -8 -1 q-8 7 -3 11 q14 20 13 43 q1 3 4 1 ZM103 28 q0 -27 -1 -37 q17 3 45 5 q5 22 5 33 q1 4 -4 4 q-26 -2 -45 -5 ZM143 125 q3 3 -2 2 q-14 0 -25 -3 l-4 4 q-6 -9 -12 -17 q9 -7 20 -15 q12 14 23 29 Z" /><glyph glyph-name="" unicode="&#x5bb9;" d="M132 139 q1 -1 6 -5 q5 -5 7 -7 q2 -2 0 -5 q-1 -1 -2 -4 q0 -2 -3 -6 q48 -62 103 -90 q2 -1 2 -3 q0 -1 -2 -1 q-13 -4 -30 -6 q-3 0 -4 1 q-43 48 -74 90 q-19 -33 -45 -55 q9 -4 11 -7 q18 0 48 2 q12 1 18 4 q3 0 5 -1 q3 -2 6 -6 q2 -2 3 -3 q2 -2 0 -4 q-7 -9 -11 -33 q4 -3 7 -8 q3 -6 -3 -6 q-22 1 -69 -1 l1 -12 q0 -5 -4 -3 q-6 3 -11 8 q-1 1 -1 6 q2 40 -5 60 q-32 -25 -73 -32 q-3 -1 -3 1 q0 1 3 2 q74 30 106 95 q7 13 10 28 q1 4 4 1 ZM49 173 q-1 2 0 2 q1 0 3 -1 q7 -6 13 -14 q32 3 66 6 q-3 24 -11 38 q-2 2 -1 4 q1 1 4 0 q9 -3 23 -10 q5 -1 3 -7 q-4 -16 -8 -24 q4 0 10 1 q7 0 10 0 q1 0 2 0 q30 2 42 5 q5 2 9 -3 q9 -9 15 -25 q2 -3 0 -5 q-1 -1 -5 -1 q-5 -1 -18 0 q-7 0 -10 0 q-4 2 -1 5 q2 5 5 11 q2 5 -3 5 q-56 0 -130 -9 q-2 -24 -12 -51 q-3 -7 -8 -1 q-5 7 -5 11 q-1 5 0 9 q3 3 5 9 q0 1 0 1 q5 18 2 44 ZM155 33 q-31 0 -50 -1 q0 -19 0 -37 q6 0 18 1 q24 1 33 2 q1 8 3 32 q1 3 -4 3 ZM186 91 q-10 26 -33 52 q-1 2 0 3 q0 1 2 0 q25 -11 39 -25 q4 -3 4 -9 q-3 -13 -7 -22 q-3 -3 -5 1 ZM111 130 q3 -2 0 -8 q-11 -24 -42 -41 q-2 -1 -3 0 q0 2 1 3 q32 34 29 63 q0 2 1 2 q2 0 3 -2 q1 -2 4 -6 q5 -7 7 -11 Z" /><glyph glyph-name="" unicode="&#x5c0f;" d="M144 180 q-4 -11 -4 -24 q-1 -17 -1 -63 q0 -45 1 -66 q2 -25 -13 -34 q-5 -5 -7 0 q-8 17 -18 28 q-3 2 -3 3 q1 1 4 0 q19 -4 18 8 q0 62 0 104 q0 43 -8 55 q-1 4 3 4 q6 -2 20 -6 q4 -2 5 -2 q6 -1 3 -7 ZM188 124 q48 -29 45 -54 q-1 -12 -12 -22 q-7 -5 -9 2 q-1 36 -28 71 q-1 3 0 4 q1 0 4 -1 ZM61 116 q18 -13 14 -21 q-8 -23 -33 -43 q-6 -5 -9 1 q-4 7 -6 13 q-1 3 2 5 q29 19 27 44 q1 4 5 1 Z" /><glyph glyph-name="" unicode="&#x5c11;" d="M111 90 q5 0 7 5 q5 19 4 64 q-1 30 -8 41 q-1 3 -1 5 q1 1 4 0 q11 -4 18 -9 q7 -2 5 -12 q-2 -16 -2 -51 q-2 -64 -5 -76 q-1 -4 -4 -5 q-2 -1 -4 2 q-14 23 -28 35 q-2 3 -1 4 q0 1 4 -1 q3 -2 11 -2 ZM219 117 q-4 -3 -7 2 q-11 21 -29 39 q-3 3 -3 4 q1 1 5 -1 q19 -6 42 -22 q3 -3 2 -7 q-3 -7 -10 -15 ZM36 79 q-3 3 2 6 q19 17 26 56 q1 6 6 4 q9 -4 7 -10 q-9 -45 -27 -62 q-4 -4 -8 -1 q-1 1 -2 3 q-3 3 -4 4 ZM22 -22 q-7 -1 -8 0 q0 1 6 3 q98 30 139 98 q15 23 12 34 q0 3 1 4 q1 0 4 -2 q10 -10 14 -16 q5 -5 -1 -10 q-3 -3 -14 -17 q-5 -7 -7 -9 q-53 -73 -146 -85 Z" /><glyph glyph-name="" unicode="&#x5efa;" d="M26 53 q-2 0 -3 1 q0 2 1 3 q1 1 4 2 q2 1 6 3 q5 2 9 0 q9 -6 23 -12 q6 12 7 24 q1 10 -2 16 q-4 5 -7 9 q-4 -6 -9 -11 q-1 -2 -3 -1 q-1 1 0 3 q13 26 16 51 q1 3 -2 2 q-17 0 -26 -6 q-3 -2 -5 1 q-4 5 -7 9 q-1 3 2 3 q23 0 43 6 q3 2 5 0 q1 -1 3 -3 q2 -1 5 -5 q3 -1 1 -4 q-5 -18 -17 -37 q2 -2 5 -5 q3 -2 9 -9 q7 -8 4 -18 q-3 -16 -10 -31 q15 -7 50 -21 q14 -6 21 -9 q-3 16 -2 30 l0 3 q-20 -2 -27 -3 q-4 -2 -5 1 q-1 1 -3 3 q-3 3 -4 3 q-1 1 -1 2 q1 1 3 1 q15 0 37 3 q0 9 0 20 q-8 -1 -21 -3 q-4 -1 -5 -1 q-1 0 -3 1 q-4 4 -5 6 q-1 1 -1 2 q0 1 2 1 q14 0 33 3 l0 19 q-5 -1 -14 -2 q-7 -2 -9 -2 q-3 -1 -4 1 q-1 2 -5 6 q-1 2 -1 3 q0 0 2 0 q5 0 31 2 q0 12 0 23 q-6 -1 -17 -3 q-16 -3 -20 -4 q-4 -1 -8 0 q-1 1 -6 4 q-4 2 -6 3 q-3 2 0 2 q8 1 35 4 q14 2 22 3 q0 10 -1 19 l0 1 q-6 -1 -16 -3 q-6 -2 -8 -2 q-2 0 -4 1 q-3 3 -5 6 q-1 1 -1 2 q0 1 2 1 q12 0 32 3 q-2 23 -5 36 q-2 3 2 2 q9 -3 18 -8 q3 -3 2 -7 q-2 -9 -2 -20 l4 1 q10 2 16 5 q3 2 5 0 q5 -5 10 -10 q2 -1 0 -4 q0 0 -1 -1 q-1 -3 -3 -14 l-1 -2 l8 2 q8 1 21 4 q5 1 7 1 q2 1 5 -1 q4 -4 6 -5 q3 -4 -1 -5 q-19 -1 -47 -5 q-3 -11 -4 -23 q3 0 5 -1 q3 -3 6 -6 q2 -3 -1 -3 q-15 0 -36 -3 q0 -9 0 -18 q13 2 19 3 q4 2 6 -1 q4 -2 6 -6 q2 -2 -1 -2 q-11 0 -30 -3 q1 -10 1 -21 q5 1 14 2 q11 2 16 3 q4 0 6 -2 q3 -2 6 -5 q0 0 1 -1 q2 -3 -1 -3 q-8 -1 -37 -3 q3 1 -5 0 q0 -2 0 -5 q1 -18 -2 -34 q9 -3 18 -6 q31 -8 65 -9 q3 0 1 -3 q-3 -1 -10 -5 q-18 -8 -28 -12 q0 0 -1 0 q-5 -2 -10 1 q-31 19 -120 60 q-15 -24 -52 -48 q-5 -2 -2 2 q34 36 42 51 q-1 1 -4 2 q-2 1 -6 3 q-17 8 -26 7 ZM160 153 l0 -6 q9 2 18 3 q0 1 0 3 q2 6 2 13 q-1 3 -3 2 q-2 0 -8 0 q-6 -1 -9 -1 q0 -7 0 -14 ZM173 117 q0 2 1 7 q2 10 3 16 q-3 0 -8 -1 q-6 -1 -9 -2 l0 -22 q7 0 13 2 Z" /><glyph glyph-name="" unicode="&#x5f00;" d="M62 165 q0 1 -2 3 q-3 5 -4 7 q-1 2 -1 3 q1 1 3 1 q25 -2 97 5 q13 2 21 7 q5 3 9 -1 q6 -6 12 -12 q2 -4 -3 -5 q-22 0 -44 -1 q7 -1 13 -6 q3 0 2 -4 q-2 -14 -2 -32 q0 -9 0 -19 q0 1 2 1 q50 3 62 7 q6 2 9 -1 q4 -6 8 -12 q2 -5 -3 -5 q-19 3 -57 1 q-3 0 -10 0 q-7 -1 -11 -1 q-1 -50 0 -95 q0 -21 -3 -29 q-3 -7 -8 -2 q-5 5 -11 14 q-1 4 0 7 q4 5 4 12 q3 32 3 92 q-21 -1 -41 -3 q0 -86 -80 -115 q-4 -1 -5 0 q-2 2 1 4 q69 39 68 110 q-45 -3 -63 -8 q-5 0 -7 3 q-1 2 -3 6 q-3 5 -4 6 q-1 3 3 3 q34 -2 75 1 q0 6 0 12 q0 38 -6 46 q-7 -2 -15 -2 q-6 -2 -9 2 ZM148 130 q0 33 -5 42 q-26 -2 -49 -5 q1 -1 4 -2 q6 -3 8 -4 q4 -1 4 -6 q-3 -14 -3 -47 q7 1 20 1 q14 1 21 1 q0 11 0 20 Z" /><glyph glyph-name="" unicode="&#x5f55;" d="M182 107 q10 -6 17 -13 q3 -3 -1 -5 q-15 -13 -42 -25 q16 -20 47 -37 q19 -11 43 -14 q4 -1 5 -2 q0 -1 -4 -2 q-14 -4 -42 -7 q-7 -1 -11 3 q-12 13 -43 49 q-15 17 -19 22 q0 -26 0 -57 q0 -12 2 -23 q0 -4 -1 -7 q-3 -9 -12 -21 q-2 -3 -5 -2 q-2 0 -2 4 q-1 18 -15 28 q-1 1 -1 2 q0 0 2 0 q0 0 2 0 q5 0 8 0 q5 0 5 1 q2 69 2 112 q-24 -2 -65 -7 q-6 -1 -8 -1 q-4 -1 -6 0 q-6 6 -9 10 q-2 1 -1 2 q0 1 2 1 q44 2 122 9 q4 17 8 56 q1 3 -2 2 q-29 -1 -85 -7 q0 0 -2 0 q-6 6 -7 8 q-1 1 -1 2 q0 1 2 1 q40 1 88 8 q4 0 12 6 q3 2 6 0 q5 -3 10 -9 q3 -2 1 -4 q-5 -4 -7 -14 q-4 -25 -8 -47 q0 0 1 0 q4 0 11 1 q22 2 32 5 q4 1 4 -2 q4 -4 7 -12 q2 -3 1 -4 q0 -1 -3 -1 q-23 2 -54 0 q-7 0 -29 -2 q2 0 -4 0 q0 -6 -1 -17 q0 -10 0 -15 q5 -1 7 -1 q6 -1 8 -4 q1 -2 4 -5 q2 -4 3 -6 q17 17 23 29 q3 3 3 10 q-1 2 2 2 ZM107 44 q-41 -28 -60 -44 q-1 -1 -5 0 q-6 4 -11 12 q-2 5 1 5 q7 1 14 4 q11 5 44 22 q11 5 14 7 q4 2 6 0 q1 -3 -3 -6 ZM148 149 q-40 -2 -65 -7 q-1 0 -4 1 q-1 1 -2 4 q-2 2 -3 3 q-1 2 1 2 q24 0 48 5 q12 2 15 4 q3 1 5 -1 q0 1 1 0 q3 -3 6 -7 q2 -2 1 -3 q0 -1 -3 -1 ZM61 84 q4 1 10 3 q5 1 8 2 q4 0 7 -3 q5 -11 8 -25 q-1 -5 -4 -4 q-3 3 -11 9 q-14 12 -19 15 q-2 2 -1 2 q0 1 2 1 Z" /><glyph glyph-name="" unicode="&#x601d;" d="M71 87 q0 73 -11 94 q-1 2 -1 3 q0 1 2 1 q2 -1 4 -1 q8 -3 12 -5 q12 1 36 3 q37 3 39 4 q11 1 20 6 q4 3 8 -1 q2 -1 8 -4 q5 -4 7 -5 q3 -3 1 -6 q-5 -6 -5 -12 q-11 -71 -23 -89 q-1 -2 -3 -2 q-1 1 -2 4 q-3 6 -4 11 q-17 -1 -59 -5 q-8 -1 -11 -1 l0 -8 q0 -4 -3 -3 q-7 2 -12 6 q-4 4 -3 10 ZM81 53 q5 -2 9 -9 q1 -2 2 -3 q26 -41 91 -35 q7 0 5 6 q-6 14 -12 26 q-2 5 2 2 q24 -20 37 -33 q4 -5 0 -8 q-1 -6 -9 -5 q-61 -5 -85 6 q-26 11 -42 52 q-3 6 2 1 ZM159 131 q-12 0 -26 -1 q0 -18 0 -34 q7 1 18 3 q5 1 7 1 q1 0 2 0 l2 8 q6 22 10 64 q1 6 -5 5 q-15 -1 -33 -3 q0 -15 -1 -33 q14 2 21 3 q4 1 5 -1 q1 -2 3 -6 q1 -1 1 -2 q2 -4 -4 -4 ZM118 139 q0 6 -1 17 q0 12 -1 17 l-33 -3 l3 -34 q15 2 32 3 ZM118 95 q0 15 0 34 q-8 0 -23 -2 q-6 -1 -9 -1 l2 -34 q15 2 30 3 ZM55 70 q11 -8 7 -17 q-10 -29 -26 -47 q-1 -2 -2 -2 q-2 0 -3 2 q-2 3 -8 22 q0 4 3 4 q23 9 26 37 q-1 2 0 3 q1 0 3 -2 ZM202 84 q24 -18 32 -27 q2 -3 -1 -9 q0 0 0 -1 q-1 -6 -9 -19 q-4 -4 -6 1 q-11 28 -19 53 q-1 2 0 3 q1 0 3 -1 ZM119 74 q23 -4 22 -32 q0 -7 -9 -9 q-4 0 -6 4 q-3 22 -9 34 q-1 2 -1 3 q1 1 3 0 Z" /><glyph glyph-name="" unicode="&#x60f3;" d="M129 160 q0 17 -7 27 q-2 2 -1 2 q1 1 4 0 q6 -1 15 -7 q1 0 1 0 q21 3 34 8 q10 2 13 6 q3 3 5 1 q3 -1 12 -6 q3 -1 4 -2 q3 -1 1 -6 q-3 -9 -3 -36 q0 -21 2 -63 q1 -12 -10 -24 q-4 -4 -6 0 q-3 10 -8 16 q-23 -2 -43 -5 q0 -5 0 -8 q0 -3 -1 -4 q-2 0 -4 3 q-5 5 -8 12 q-3 6 -2 10 q2 6 3 20 q0 33 -1 56 ZM116 148 q-5 0 -18 -2 q9 2 -3 0 q0 -5 0 -10 q16 -13 22 -20 q5 -6 -3 -19 q-4 -4 -6 0 q-6 19 -13 32 q0 -9 -1 -29 q0 -20 -1 -29 q-1 -20 -12 -24 q-3 0 -5 5 q-1 7 -7 14 q-2 2 -1 2 q0 1 2 1 q8 -3 9 6 q2 22 2 46 q-28 -35 -62 -44 q-3 -1 -4 1 q0 1 3 2 q45 29 61 64 q-5 -1 -17 -3 q-11 -2 -17 -3 q-6 -2 -14 10 q-1 3 2 3 q18 -1 49 4 q0 10 0 19 q-1 21 -8 32 q-1 4 -1 5 q1 1 4 -1 q1 -1 4 -2 q10 -6 16 -10 q3 -2 2 -8 q-3 -7 -3 -28 q-1 -2 -1 -5 q4 1 11 3 q3 1 4 1 q5 2 10 -8 q2 -5 -4 -5 ZM180 124 q3 2 5 -2 q4 -7 -2 -7 q-23 -3 -39 -6 q-1 -15 -1 -29 q16 1 48 7 q1 2 1 5 q2 33 -2 86 q-2 4 -5 4 q-5 -1 -16 -3 q-17 -4 -26 -6 q1 -9 1 -24 q24 4 32 7 q4 1 5 -3 q2 -5 2 -6 q0 -1 -3 -1 q-8 -1 -36 -5 q0 -12 0 -24 q18 3 36 7 ZM75 41 q26 -51 95 -41 q6 2 3 5 q-2 6 -7 17 q-1 3 -2 5 q-1 2 0 3 q1 0 4 -1 q5 -4 15 -13 q5 -5 8 -7 q4 -4 15 -10 q3 -2 5 -3 q3 -2 2 -5 q-1 -2 -5 -3 q-72 -8 -99 4 q-28 9 -37 48 q-1 3 1 3 q1 0 2 -2 ZM52 46 q7 -5 4 -12 q-12 -26 -18 -34 q-3 -3 -7 0 q-6 4 -9 8 q-1 2 1 4 q12 12 17 18 q7 7 9 15 q0 2 1 2 q1 0 2 -1 ZM196 48 q26 -7 34 -11 q3 -1 3 -6 q0 -9 -6 -19 q-3 -3 -6 0 q-11 21 -27 33 q-2 2 -2 3 q1 1 4 0 ZM112 56 q8 -2 22 -8 q6 -2 8 -3 q3 -3 2 -7 q-1 -4 -6 -12 q-3 -4 -6 0 q-8 14 -22 27 q-1 2 -1 3 q1 1 3 0 Z" /><glyph glyph-name="" unicode="&#x642d;" d="M84 187 q0 -11 -2 -44 q1 4 0 -7 q4 1 11 2 q4 2 6 2 q4 1 5 -2 q5 -9 0 -8 q-1 0 -5 -1 q-4 0 -17 -3 q0 -15 -1 -32 q3 2 8 5 q9 6 14 8 q3 2 5 1 q2 -1 -1 -3 q-12 -11 -26 -20 q-1 -32 -1 -78 q1 -27 -10 -37 q-3 -3 -6 1 q-10 16 -19 26 q-2 2 -2 3 q0 0 3 0 q19 -6 17 6 q2 14 4 68 q-21 -15 -43 -28 q-4 -2 -6 0 q-6 4 -12 10 q-2 1 -2 2 q0 1 3 2 q1 0 3 1 q2 0 9 3 q17 6 48 22 q0 19 0 37 q-19 -3 -32 -8 q-5 -2 -7 1 q0 2 -2 5 q-2 3 -3 4 q-2 2 1 2 q24 2 43 6 l0 15 q0 39 -9 52 q-1 2 -1 3 q1 1 4 0 q10 -4 20 -10 q3 -1 3 -6 ZM139 -31 q-1 -5 -6 -1 q-4 5 -6 8 q-2 2 -2 8 q2 29 -5 50 q-2 10 -6 13 q-1 2 0 3 q0 1 3 0 q3 0 13 -2 q1 -1 2 -1 q1 0 2 -1 q10 1 34 5 q0 0 1 0 q11 3 12 6 q2 1 8 -1 q7 -7 10 -11 q3 -3 1 -7 q-7 -10 -10 -33 q1 -1 4 -4 q3 -3 4 -4 q1 -2 1 -3 q-1 -1 -3 -1 q-18 2 -57 0 q2 -14 0 -24 ZM178 73 q-26 -2 -39 -5 q-4 -1 -6 5 q-21 -24 -48 -41 q-2 -1 -3 0 q-1 2 1 4 q37 35 58 76 q7 12 6 24 q0 3 4 2 q1 -1 3 -2 q6 -3 10 -7 q3 -2 0 -7 q0 -1 -1 -2 q-1 -2 -2 -3 q7 1 13 1 q4 0 7 -4 q14 -23 33 -40 q15 -15 35 -18 q4 -1 4 -3 q0 -1 -3 -2 q-13 -4 -25 -6 q-6 -1 -8 2 q-4 5 -11 15 q-25 31 -33 43 q-4 5 -12 7 q-2 1 -2 1 q-10 -19 -22 -34 q24 2 35 4 q3 2 6 -1 q0 -1 2 -4 q1 -1 1 -2 q2 -3 -3 -3 ZM172 207 q-1 2 -1 3 q1 1 3 0 q11 -4 20 -9 q3 -1 2 -7 q-1 -2 -3 -8 q-4 -11 -6 -17 q2 0 4 1 q14 1 27 7 q6 2 8 -2 q0 -1 2 -3 q3 -5 4 -7 q1 -2 1 -3 q0 0 -2 0 q-16 1 -39 -2 q-4 0 -9 -1 q-4 -9 -10 -21 q-1 -2 -3 -3 q-5 1 -5 5 q1 1 2 6 q2 7 3 12 q-1 0 -2 0 q-12 -1 -26 -4 q1 -3 1 -10 q1 -6 1 -10 q0 -3 -1 -3 q-1 0 -4 1 q-2 1 -7 4 q-2 1 -2 5 q-1 6 -1 11 q-9 -1 -17 -3 q-7 -2 -10 2 q-3 3 -5 7 q-2 2 -1 2 q0 1 2 1 q6 0 22 1 q5 1 7 1 q0 7 -3 16 q-2 8 -5 14 q-2 2 -2 3 q0 0 3 0 q2 0 6 -1 q8 -1 10 -2 q2 0 3 -3 q-1 1 0 -1 q2 -12 2 -25 q5 1 16 2 q10 1 15 1 q2 9 3 19 q2 13 -3 21 ZM173 40 q-9 0 -30 -2 q-5 -1 -7 -1 q1 -8 2 -29 q0 4 1 -8 q21 1 36 4 q0 4 1 13 q2 15 2 19 q1 4 -5 4 Z" /><glyph glyph-name="" unicode="&#x6587;" d="M106 99 q9 -15 20 -27 q11 21 11 47 q1 6 -2 11 q-55 -6 -94 -13 q-5 -2 -7 3 q0 1 -2 3 q-2 4 -3 6 q-1 1 0 2 q0 0 3 0 q22 0 39 1 q44 4 103 12 q19 3 27 8 q4 3 7 0 q3 -2 10 -9 q2 -2 2 -2 q2 -2 1 -3 q0 -1 -3 -1 q-10 0 -55 -4 q-12 -1 -18 -2 q4 -3 7 -5 q4 -4 2 -9 q-7 -37 -18 -57 q24 -24 58 -43 q30 -15 56 -17 q2 -1 3 -3 q0 -1 -3 -2 q-3 0 -12 -2 q-19 -2 -28 -3 q-7 -1 -11 2 q-35 23 -69 58 q-25 -40 -92 -52 q-9 -2 -10 -1 q0 2 9 3 q57 21 83 61 q-11 12 -20 22 q-4 6 -11 6 q-8 1 -20 1 q-4 -1 -5 6 q-1 4 2 4 q17 1 31 3 q7 2 9 -4 ZM100 192 q-2 2 -1 3 q1 1 4 0 q19 -10 32 -20 q6 -4 4 -9 q-2 -8 -8 -16 q-2 -3 -5 -3 q-2 1 -3 5 q-6 14 -23 40 Z" /><glyph glyph-name="" unicode="&#x65e0;" d="M37 112 q8 -3 20 -1 q24 3 53 6 q2 9 3 19 q4 22 -1 32 q-15 -1 -34 -6 q-2 0 -5 2 q-2 2 -6 10 q-1 1 -1 2 q33 1 88 9 q12 1 17 5 q4 2 7 -1 q4 -4 8 -10 q1 -3 1 -4 q-1 -1 -4 -1 q-24 0 -64 -5 q7 -3 13 -8 q4 -2 2 -7 q-3 -19 -7 -35 q9 1 27 3 q17 1 26 2 q14 1 20 6 q6 3 8 -1 q2 -1 9 -8 q1 -2 2 -3 q2 -4 2 -5 q-1 -1 -5 -1 q-18 0 -76 -4 q1 -1 3 -2 q8 -6 11 -9 q3 -2 0 -8 q-4 -9 -5 -25 q0 -2 -1 -6 q-3 -25 -3 -40 q-1 -17 16 -18 q26 0 50 2 q16 0 31 38 q1 3 3 3 q1 -1 1 -4 q0 -8 -3 -39 q-1 -7 -10 -8 q-34 -4 -77 -3 q-26 1 -26 24 q0 26 4 57 q2 27 0 37 q-6 0 -10 -1 q-21 -88 -105 -122 q-4 -2 -6 -1 q-1 2 3 4 q73 47 90 118 q-5 -1 -15 -2 q-31 -4 -39 -6 q-6 -1 -8 2 q-5 4 -8 10 q-1 2 -1 2 q1 1 2 1 Z" /><glyph glyph-name="" unicode="&#x6b65;" d="M183 169 q-17 0 -43 -2 q0 -7 -1 -20 q0 -9 0 -13 q8 0 26 2 q20 1 31 2 q10 2 25 5 q4 2 7 -1 q4 -4 10 -12 q2 -2 1 -2 q0 -1 -2 -1 q-52 0 -115 -5 q1 0 3 -1 q4 -2 10 -6 q2 0 2 -7 q0 -30 -3 -71 q21 18 35 35 q12 14 11 23 q0 4 1 5 q1 1 4 -2 q8 -8 12 -14 q4 -3 0 -7 q-70 -82 -168 -105 q-8 -2 -9 -1 q0 1 7 5 q62 25 98 54 l-1 1 q-13 15 -20 21 q-3 2 -2 3 q2 1 5 0 q13 -7 12 2 q1 9 1 31 q-1 28 -4 34 q-50 -5 -78 -9 q-3 0 -5 2 q-7 8 -10 12 q23 2 49 3 q-1 46 -5 51 q-1 2 -1 3 q1 1 3 0 q11 -4 17 -8 q3 -1 3 -7 q-2 -28 -2 -39 q17 2 35 3 q0 26 -1 48 q0 19 -7 31 q-2 4 2 2 q13 -5 21 -10 q3 -1 3 -7 q0 -8 0 -20 q1 0 5 0 q22 2 33 4 q3 0 4 -2 q0 -1 2 -5 q1 -2 1 -3 q1 -2 -2 -2 ZM81 96 q3 -3 7 -7 q0 -2 -1 -5 q-10 -23 -30 -43 q-2 -2 -5 1 q0 1 -2 5 q-2 3 -3 4 q-2 4 1 6 q21 15 28 38 q2 4 5 1 Z" /><glyph glyph-name="" unicode="&#x6c42;" d="M174 132 q3 -3 8 -9 q4 -4 5 -5 q3 -5 0 -9 q-23 -21 -36 -31 q21 -20 38 -31 q28 -20 54 -24 q3 -1 3 -2 q0 -2 -2 -3 q-3 -1 -8 -3 q-22 -6 -30 -8 q-6 -3 -11 3 q-30 33 -63 74 q0 -31 0 -48 q0 -19 1 -35 q0 -17 -12 -31 q-1 -3 -3 -3 q-2 0 -3 3 q-5 14 -17 26 q-2 3 1 3 q6 0 12 0 q3 0 4 1 q3 72 2 138 l0 1 q-33 -3 -47 -6 q-4 -2 -5 1 q-5 5 -7 11 q-2 3 2 2 q37 0 57 2 q-1 46 -7 61 q0 2 1 3 q1 0 2 -1 q7 -2 22 -10 q0 0 1 -1 q1 0 1 -2 q-4 -14 -4 -49 q23 3 35 6 q4 2 5 -1 q4 -5 7 -11 q1 -1 1 -2 q-1 -1 -3 -1 q-11 1 -45 -1 l0 -2 q-1 -18 -1 -39 q6 -8 12 -14 q12 10 22 25 q5 8 5 20 q0 3 3 2 ZM110 61 q-33 -25 -64 -45 q-3 -3 -5 -1 q-9 6 -17 12 q-2 3 1 4 q23 4 82 35 q3 1 4 -2 q1 -2 -1 -3 ZM52 113 q24 -9 35 -16 q5 -1 3 -6 q-3 -9 -6 -17 q-2 -3 -2 -3 q0 0 -2 3 q-11 18 -29 36 q-2 2 -1 3 q0 1 2 0 ZM164 198 q-1 3 2 3 q18 -7 27 -13 q7 -5 5 -11 q-3 -9 -8 -15 q-4 -3 -5 1 q-9 23 -21 35 Z" /><glyph glyph-name="" unicode="&#x6d4b;" d="M85 172 q1 -1 4 -2 q6 -3 8 -4 q13 1 25 4 q2 0 5 1 q16 4 18 7 q4 3 8 0 q6 -5 8 -8 q3 -2 1 -6 q0 -1 -1 -4 q-2 -7 -2 -12 q0 -59 -1 -76 q-1 -15 -5 -23 q-1 -2 -2 -2 q-2 0 -3 2 q-8 13 -5 25 q2 9 1 66 q0 14 0 20 q0 4 -4 4 q-1 0 -2 0 q-7 -1 -17 -4 q-14 -3 -20 -2 q0 -32 0 -89 q-2 -18 -10 -20 q-6 4 -6 19 q4 27 2 69 q-1 26 -4 33 q-1 3 2 2 ZM230 188 q-1 -6 -2 -26 q-1 -7 -1 -12 q-1 -44 -1 -85 q-1 -39 0 -54 q2 -12 0 -18 q-1 -6 -11 -14 q-2 -2 -4 -1 q-1 0 -1 2 q-5 20 -14 28 q-2 2 -2 3 q0 1 3 1 q2 0 6 -1 q3 0 4 0 q4 -1 4 7 q0 7 0 26 q1 66 0 115 q1 38 -4 42 q0 2 0 3 q1 0 3 -1 q6 -2 16 -8 q1 -1 1 -1 q5 -1 3 -6 ZM132 124 q-1 -68 -15 -95 q-13 -29 -55 -46 q-4 -1 -5 0 q-1 1 2 3 q59 35 57 119 q2 19 -3 31 q-1 3 2 2 q8 -3 15 -9 q2 -2 2 -5 ZM39 0 q-2 -3 -3 -3 q-1 0 -2 3 q-5 8 -14 34 q-1 1 -1 2 q-2 6 2 2 q7 -7 9 -8 q4 -3 6 1 q25 47 37 77 q2 4 3 4 q1 -1 0 -5 q-12 -47 -23 -80 q-5 -17 -14 -27 ZM177 148 q2 -1 7 -3 q4 -3 6 -4 q2 0 2 -7 q1 -17 1 -59 q-1 -15 -8 -17 q-3 1 -7 10 q-1 4 0 10 q2 51 -4 68 q0 3 3 2 ZM126 35 q15 -2 22 -9 q7 -7 16 -16 q4 -4 1 -8 q-2 -3 -7 -8 q-4 -4 -6 1 q-12 21 -28 37 q-1 1 -1 2 q1 1 3 1 ZM22 129 q14 -5 27 -12 q3 -2 2 -7 q-4 -11 -9 -18 q-2 -3 -3 -3 q0 0 -1 3 q-7 16 -18 33 q-2 3 -1 4 q0 1 3 0 ZM43 183 q3 -2 15 -9 q9 -6 12 -8 q4 -3 2 -8 q-2 -8 -6 -17 q-1 -2 -2 -2 q-2 0 -3 2 q-13 28 -20 39 q-1 2 -1 3 q1 1 3 0 Z" /><glyph glyph-name="" unicode="&#x7269;" d="M196 118 q2 -2 1 -4 q-21 -98 -86 -125 q-2 -1 -3 1 q-1 1 1 3 q50 35 69 106 q5 16 0 27 q-3 0 -9 0 q-6 -1 -9 -1 q6 -6 11 -11 q2 -1 0 -4 q-19 -49 -56 -72 q-2 -1 -3 0 q0 2 1 3 q39 42 42 83 q-1 0 -5 0 q-3 -1 -5 -1 q-12 -26 -23 -36 q-3 -3 -2 2 q11 28 19 70 q4 23 2 40 q-1 5 2 2 q7 -4 17 -13 q3 -2 4 -3 q3 -2 1 -5 q-4 -6 -8 -21 q-4 -15 -9 -27 q25 2 49 5 q11 2 19 8 q3 2 5 -1 q10 -10 14 -15 q2 -2 0 -4 q-4 -13 -7 -30 q-8 -56 -20 -92 q-5 -16 -18 -24 q-5 -3 -7 3 q-2 13 -10 25 q-1 3 2 2 q18 -6 19 4 q17 55 19 111 q0 5 -3 5 q-11 -2 -26 -2 q9 -6 12 -9 ZM45 165 q12 -6 18 -11 q3 -1 2 -4 q-3 -11 -8 -22 q2 0 7 1 q10 1 14 2 q0 40 -7 69 q-1 3 2 1 q9 -3 22 -13 q2 0 2 -3 q-4 -20 -4 -51 q4 0 10 2 q-1 -1 2 0 q0 0 1 0 q2 1 3 0 q5 -3 9 -8 q1 -1 -1 -3 q-3 0 -11 -1 q-8 -2 -13 -2 q0 -5 0 -15 q-1 -11 -1 -16 q9 5 18 9 q3 0 3 -1 q1 -3 1 -7 q0 -3 -3 -5 q-10 -4 -19 -9 q0 -13 -1 -40 q0 -24 0 -36 q0 -14 -4 -23 q-1 -3 -2 -4 q-2 0 -4 3 q-6 5 -10 14 q-3 3 -1 7 q4 11 5 25 q2 21 3 47 q-19 -9 -30 -15 q-2 -1 -6 -4 q-6 -3 -9 -6 q-2 -1 -5 0 q-8 8 -14 12 q-1 2 1 3 q30 8 63 23 q0 6 1 18 q0 12 0 18 q-6 -1 -17 -2 q-8 -2 -11 -2 q-16 -23 -31 -33 q-2 -1 -3 0 q-1 2 0 4 q17 20 24 46 q5 15 3 30 q-1 4 1 2 Z" /><glyph glyph-name="" unicode="&#x73b0;" d="M109 97 q-5 0 -17 -2 q-6 -1 -9 -1 q-2 -36 -3 -48 q1 1 3 1 q2 1 3 1 q10 3 17 6 q3 2 5 -1 q1 -1 3 -4 q2 -4 3 -5 q2 -3 -2 -4 q-28 -4 -83 -18 q-3 -1 -4 0 q-1 1 -4 5 q-4 5 -5 6 q-1 2 -1 2 q1 1 2 1 q10 0 49 7 q0 15 2 46 q-2 -22 0 3 q-5 -1 -15 -3 q-8 -1 -11 -2 q-2 -1 -3 0 q-1 1 -3 5 q-3 4 -4 5 q-1 2 0 2 q0 1 2 1 q6 0 34 4 q0 10 0 22 q-1 14 -5 23 q-5 -1 -15 -3 q-3 -1 -4 -1 q-2 -1 -2 0 q0 0 -1 1 q-1 1 -5 5 q-3 4 -4 5 q-1 2 2 2 q17 0 52 7 q6 1 12 4 q3 2 6 -1 q2 -3 8 -9 q1 -1 1 -3 q-1 -1 -3 -1 q-17 -2 -37 -5 q6 -1 9 -3 q2 -2 2 -6 q0 -4 0 -14 q-1 -13 -1 -21 q1 1 3 1 q2 1 3 1 q5 0 11 3 q3 2 5 -1 q1 -1 4 -6 q1 -2 2 -3 q2 -3 -2 -4 ZM118 82 q3 4 3 76 q-1 17 -6 26 q-1 2 0 2 q1 1 3 0 q7 -3 13 -7 q20 1 45 5 q10 2 13 6 q2 2 6 0 q10 -5 13 -8 q3 -2 2 -5 q-5 -20 -5 -42 q0 -4 0 -13 q1 -20 0 -35 q0 -13 -3 -23 q-2 -4 -5 0 q-4 5 -6 9 q-3 8 -2 15 q2 30 0 81 q0 4 -4 4 q-26 -2 -50 -5 q2 -56 -1 -99 q-1 -6 -5 -3 q-4 3 -10 9 q-3 3 -1 7 ZM173 139 q-1 -6 -3 -24 q-6 -108 -88 -131 q-4 -1 -5 1 q-1 1 2 3 q57 34 69 81 q6 19 8 53 q0 19 -4 27 q-1 3 -1 4 q1 1 4 -1 q3 -1 8 -3 q6 -3 8 -4 q4 -2 2 -6 ZM170 72 q7 -4 14 -9 q3 -1 2 -6 q-8 -18 -8 -43 q-2 -11 11 -11 q22 -1 34 2 q9 -1 26 34 q2 4 3 4 q2 0 1 -5 q-4 -26 -5 -38 q-2 -8 -10 -7 q-33 -3 -58 0 q-18 3 -17 17 q1 12 3 30 q1 6 1 8 q3 13 0 22 q0 3 3 2 Z" /><glyph glyph-name="" unicode="&#x7406;" d="M125 79 q-5 2 -8 5 q-3 2 -1 6 q0 1 0 3 q1 5 1 10 q0 5 -1 17 q-1 24 -2 30 q-3 15 -9 24 q-1 1 -1 2 q0 1 2 1 q9 -2 14 -7 q42 3 63 7 q6 0 10 2 q2 2 7 4 q3 1 4 2 q2 3 6 0 q1 -1 4 -4 q3 -3 4 -5 q4 -5 -1 -11 q0 0 -1 -3 q-1 -2 -2 -4 q-5 -18 -7 -57 q0 -1 -1 -3 q-1 -5 -2 -6 q-2 -6 -7 -11 q-2 -2 -3 -2 q-2 1 -3 4 q-2 5 -5 11 q-2 0 -7 0 q-8 -1 -13 -1 l-1 -31 q32 3 39 6 q3 1 4 -1 q2 -3 5 -9 q1 -3 0 -3 q0 -1 -3 -1 q-13 1 -45 -1 q0 -7 -1 -22 q0 -12 0 -18 q34 2 66 6 q4 2 7 -1 q5 -4 7 -10 q2 -2 1 -4 q-1 -1 -4 -1 q-67 2 -148 -7 q-5 -1 -8 2 q0 0 -1 1 q-7 6 -8 9 q-1 2 0 3 q1 1 2 0 q10 -1 40 0 q6 0 18 1 q10 0 15 0 q1 14 1 39 q-15 -1 -28 -4 q-3 0 -5 2 q0 1 -2 3 q-2 3 -3 5 q-1 2 0 3 q0 0 2 0 q22 0 36 1 l1 31 q-4 0 -12 -1 q-7 0 -11 -1 q0 -4 0 -9 q0 -3 -1 -3 q-1 0 -4 1 ZM18 154 q-1 2 -1 2 q1 1 2 1 q8 0 19 1 q21 1 55 8 q2 0 3 -1 q2 -2 4 -4 q1 -2 2 -3 q1 -2 1 -2 q-1 -1 -2 -1 q-17 -3 -32 -4 q1 -18 1 -43 q1 0 2 0 q6 1 14 4 q1 0 4 -1 q4 -3 7 -7 q1 -1 -2 -3 q-12 -1 -25 -4 q0 -25 0 -47 q9 3 27 6 q3 1 5 1 q3 1 4 -1 q1 -1 -2 -3 q-43 -20 -79 -34 q-3 0 -4 1 q-6 6 -11 14 q-2 2 1 2 q10 -1 22 3 q5 1 14 4 q6 2 10 3 q0 23 0 49 q-13 -3 -24 -6 q-3 0 -4 1 q-3 3 -8 8 q-1 2 -1 2 q1 1 2 1 q9 0 24 3 l10 1 q0 8 -1 23 q0 14 0 21 q-7 -1 -18 -3 q-7 -2 -9 -2 q-3 -1 -4 1 q-1 1 -4 6 q-1 2 -2 3 ZM187 130 q-12 0 -21 -1 q0 -12 0 -26 q2 0 5 1 q9 1 10 1 q4 2 7 -3 q4 0 4 3 q4 22 5 59 q0 4 -3 3 q-14 0 -29 -2 q2 -6 2 -12 l0 -15 q12 2 13 2 q3 2 5 -1 q2 -1 3 -5 q3 -3 -1 -4 ZM127 162 l-2 1 q3 -4 3 -9 q1 -3 1 -10 q1 -6 1 -10 q11 2 24 2 q0 8 0 14 q0 6 -1 14 q-10 -1 -21 -3 q-4 0 -5 1 ZM130 125 q1 -13 1 -26 q12 2 22 2 l1 27 q-13 -1 -24 -3 Z" /><glyph glyph-name="" unicode="&#x7720;" d="M204 142 q-19 -3 -40 -6 q6 -1 11 -3 q2 -1 2 -3 q-1 -6 1 -19 q2 -5 2 -11 q35 9 39 12 q5 2 8 0 q3 -2 8 -7 q2 -2 2 -4 q-1 -1 -4 -1 q-2 0 -7 -1 q-26 -5 -43 -9 q13 -52 46 -80 q3 -4 6 0 q1 2 5 7 q5 8 8 12 q1 1 2 2 q2 -1 1 -2 q-2 -34 -11 -50 q-2 -3 -6 0 q-47 43 -65 109 q-18 -5 -34 -8 q0 -38 0 -57 q0 -8 7 -5 q1 0 5 2 q17 7 22 9 q2 1 3 0 q1 -1 -1 -3 q-19 -21 -45 -34 q-3 -2 -6 1 q-3 3 -6 6 q-2 2 1 4 q5 5 5 21 q1 9 1 58 q0 50 -1 66 q0 25 -6 34 q-1 2 0 2 q1 1 4 0 q6 -1 12 -3 q9 1 27 4 q15 3 19 3 q13 3 18 5 q6 3 8 0 q7 -5 10 -8 q4 -2 2 -6 q-5 -12 -13 -27 q1 0 2 -1 q4 -3 4 -5 q1 -2 1 -3 q-1 -1 -4 -1 ZM83 175 q3 2 5 0 q6 -3 11 -7 q1 -2 1 -4 q-1 -4 -1 -15 q-1 -11 -1 -16 q-2 -63 -1 -103 q0 -19 -3 -29 q-2 -2 -5 -1 q-4 4 -7 10 q-1 2 -1 4 q2 9 2 23 q-6 -2 -18 -6 q-11 -4 -15 -5 q-2 -1 -7 -3 q-11 -4 -14 -6 q-1 -1 -3 1 q-3 4 -7 11 q0 2 1 2 q2 0 7 1 q6 1 10 2 q1 12 0 59 q0 18 0 25 q0 38 -4 48 q-1 2 0 3 q1 1 3 0 q7 -2 12 -6 q1 0 3 1 q5 0 15 3 q9 3 17 8 ZM75 117 q-12 -2 -24 -5 q0 -15 0 -30 q5 1 14 4 q3 1 5 1 q2 0 3 0 q0 -1 1 -2 q2 -3 3 -5 q1 -2 -1 -2 q-12 -2 -25 -5 q0 -25 -1 -35 q18 3 33 8 q2 61 0 111 q1 3 -2 3 q-17 -2 -30 -6 q0 -16 0 -33 q3 1 9 3 q5 2 8 3 q2 0 3 0 q1 -1 3 -3 q1 -2 2 -3 q2 -3 -1 -4 ZM188 180 q-3 0 -18 -3 q-25 -4 -34 -5 q0 -4 0 -10 q0 -5 0 -22 q10 2 37 7 q11 2 16 3 q0 2 2 9 q2 13 2 17 q1 4 -5 4 ZM135 90 q2 0 5 1 q10 2 27 6 q-1 6 -3 12 q0 1 -1 4 q-3 15 -7 22 q-10 -3 -21 -4 q0 -18 0 -41 Z" /><glyph glyph-name="" unicode="&#x7761;" d="M118 118 q1 0 2 0 q8 -1 17 -4 q4 -1 4 -5 l1 -17 q8 0 15 2 q0 23 0 39 q-18 -3 -37 -7 q-3 0 -4 1 q-1 1 -5 4 q-2 2 -2 2 q-1 2 -1 3 q1 1 3 1 q8 1 22 2 q16 2 24 3 l0 1 q0 2 0 6 q-1 14 -4 21 q-24 -4 -32 -4 q-4 -1 -5 1 q0 2 4 3 q26 6 50 21 q6 4 6 11 q0 4 1 4 q1 1 4 -1 q10 -8 18 -16 q4 -4 3 -6 q0 -1 -5 -3 q-19 -5 -36 -8 q2 -1 5 -3 q4 -2 5 -3 q3 -1 2 -6 q-2 -6 -2 -15 q12 2 33 5 q5 2 8 2 q2 1 4 0 q-1 1 1 -1 q3 -4 5 -7 q1 -1 1 -2 q0 -1 -2 -1 q-26 -3 -50 -6 l0 -39 l20 4 q2 18 -3 26 q-1 2 0 2 q0 1 2 1 q6 -2 17 -9 q4 -1 2 -6 q-1 -5 -3 -11 l9 1 q8 1 18 6 q5 3 8 0 q1 -1 2 -2 q5 -5 6 -6 q2 -3 1 -4 q0 -2 -3 -2 q-3 0 -9 -1 q-22 -1 -35 -3 q-6 -20 -14 -35 q-1 -3 -3 -3 q-2 0 -1 4 q1 5 2 14 q1 5 3 18 q-10 -1 -19 -3 q0 -6 0 -20 q-1 -14 -1 -21 q12 2 25 4 q7 1 23 5 q4 3 7 -1 q2 -2 5 -6 q3 -3 4 -4 q1 -2 0 -3 q-1 -1 -3 0 q-21 0 -31 -1 q-15 0 -30 -2 q0 -26 1 -36 q15 2 27 3 q2 1 7 2 q5 2 7 2 q3 2 5 0 q2 -2 5 -5 q2 -3 3 -4 q2 -1 1 -3 q-1 -1 -4 -1 q-43 2 -103 -8 q-4 -1 -6 1 q-1 1 -4 6 q-1 2 -2 3 q-1 2 2 2 q9 0 31 0 q11 0 16 0 q0 20 0 36 q-26 -3 -46 -8 q-3 -1 -6 1 q-1 2 -3 5 q-3 3 -4 4 q-2 2 1 2 q8 0 18 0 q6 1 17 2 q7 1 24 3 q0 22 0 40 l-15 -3 q1 -15 1 -29 q0 -2 -1 -3 q-1 0 -2 1 q-1 0 -4 2 q-1 1 -2 1 q-2 1 -2 4 q-2 13 -2 22 q-6 -2 -17 -4 q-2 0 -3 0 q-4 0 -7 2 q-4 4 -6 8 q-2 3 1 2 q12 0 31 2 q-3 21 -12 26 l1 2 ZM42 18 q-2 -3 -5 1 q-3 4 -4 10 q0 3 0 5 q3 9 3 26 q2 25 0 58 q0 24 -3 46 q-1 4 2 2 q5 -1 9 -4 q9 1 17 4 q10 3 16 6 q1 2 4 0 q2 -1 7 -4 q4 -3 6 -5 q3 -2 1 -5 q-3 -8 -3 -23 q0 -79 -1 -112 q0 -1 0 -3 q-3 -6 -9 -8 q-6 0 -6 5 q1 3 1 13 q1 8 1 13 q-15 -2 -30 -5 q-1 -11 -6 -20 ZM75 158 q-12 -2 -26 -5 q0 -13 0 -28 q3 1 9 4 q4 1 6 2 q2 2 4 0 q1 -1 3 -3 q1 -2 2 -3 q2 -4 -1 -4 q-4 -1 -11 -2 q-8 -1 -12 -2 q0 -13 0 -26 q3 1 9 2 q5 2 9 3 q2 2 3 0 q0 -1 1 -2 q2 -3 3 -5 q1 -2 -1 -2 q-3 -1 -8 -2 q-11 -2 -16 -3 l-1 -34 q12 2 24 5 q2 0 3 -1 l3 -2 q2 69 0 105 q0 5 -3 3 Z" /><glyph glyph-name="" unicode="&#x7a0b;" d="M94 100 q0 0 -1 0 q0 -21 1 -59 q0 -25 0 -34 q0 -14 -7 -24 q-4 -3 -6 0 q0 1 -1 2 q-10 11 -22 21 q-1 1 -1 2 q0 1 2 1 q9 0 17 0 q3 1 3 4 q1 39 1 73 q-28 -31 -69 -41 q-1 -1 -2 1 q0 1 1 2 q45 25 70 64 q0 3 -1 7 q-7 -2 -20 -4 q-19 -4 -24 -6 q-2 0 -4 1 q-5 4 -8 10 q-2 2 1 2 q18 1 55 7 q0 18 -3 34 q-18 -4 -38 -6 q-2 0 -2 1 q-1 2 1 3 q57 16 59 34 q0 2 3 1 q12 -8 20 -17 q3 -3 -1 -4 q-13 -6 -31 -10 q5 -1 6 -3 q3 0 2 -3 q-1 -12 -1 -28 q18 4 24 6 q2 0 3 -1 q3 -3 6 -7 q1 -2 -1 -3 q-13 -2 -33 -5 l0 -18 q2 0 3 0 q11 -4 21 -11 q3 -2 3 -8 q0 -9 -4 -18 q-2 -2 -3 0 q-6 19 -19 34 ZM125 105 q15 -1 58 4 q14 1 25 6 q2 0 4 -1 q7 -6 10 -13 q1 -2 -2 -3 q-24 0 -51 -3 q1 -1 4 -2 q2 -2 3 -3 q1 -2 1 -5 q0 -1 0 -7 q-1 -11 -1 -19 q24 2 32 3 q2 1 3 -1 q3 -3 5 -8 q2 -2 -1 -2 q-9 0 -39 -2 q0 -25 0 -42 l16 1 q22 2 32 6 q4 0 6 -1 q10 -7 13 -13 q1 -4 -2 -4 q-14 2 -54 2 q-48 -1 -74 -4 q-3 0 -3 2 q-4 4 -6 7 q0 2 2 2 q10 0 38 1 q11 1 17 1 q0 18 0 41 q-22 -2 -29 -3 q-1 0 -2 1 q-1 1 -2 2 q-1 2 -3 6 q-1 3 1 3 q20 0 35 1 q0 10 0 20 q0 3 -1 9 q0 6 0 8 q-11 -1 -26 -4 q-3 0 -4 1 q-4 6 -6 11 q-2 2 1 2 ZM151 118 q0 -2 -4 -1 q-4 2 -9 7 q0 1 0 2 q-1 1 -1 2 q0 2 0 6 q-1 12 -3 23 q-2 13 -8 27 q0 2 2 2 q8 0 17 -5 q12 2 33 4 q2 0 3 0 q5 1 16 5 q3 2 5 0 q7 -7 11 -12 q0 0 0 -1 q1 -1 0 -2 q-7 -7 -14 -30 q0 0 2 -1 q2 0 5 -3 q4 -5 -1 -6 q-12 0 -42 -2 q-8 -1 -11 -1 q1 -8 -1 -14 ZM189 175 q-12 -1 -42 -3 q0 -4 2 -12 q1 -12 2 -18 q18 2 34 3 q1 2 2 8 q3 15 4 20 q0 2 -2 2 Z" /><glyph glyph-name="" unicode="&#x7ae0;" d="M34 25 q22 1 88 7 q0 3 0 6 q0 2 -1 7 q0 10 -2 14 q-3 0 -9 -1 q-5 0 -8 -1 l0 -7 q1 -3 0 -3 q-1 -1 -4 1 q-5 2 -6 5 q-2 3 -2 8 q-5 29 -8 42 q-1 7 -3 8 q0 3 1 2 q10 0 13 -1 q7 1 28 3 q29 3 32 4 q1 0 3 1 q8 1 11 3 q2 2 5 0 q3 -2 8 -7 q2 -2 0 -6 q0 -1 -1 -2 q-3 -8 -4 -15 q-1 -14 -6 -33 q-1 -6 -6 -12 q-1 -2 -3 -2 q-1 0 -2 2 q-3 7 -10 13 q-6 0 -16 -1 q1 0 2 0 q1 -1 1 -1 q3 -1 2 -6 q0 -2 0 -6 q-1 -8 -1 -13 q32 3 58 6 q13 2 22 6 q4 3 7 0 q3 -2 9 -11 q2 -5 -3 -5 q-46 0 -94 -6 l0 -6 q0 -22 0 -49 q0 -3 -2 -4 q-3 0 -5 3 q-4 4 -8 10 q-5 4 -2 10 q4 15 4 35 q-49 -5 -75 -11 q-6 -1 -7 2 q-1 2 -3 5 q-3 3 -4 4 q-3 2 1 2 ZM97 167 q-1 1 -1 2 q-13 -1 -22 -3 q-3 -1 -4 1 q-3 4 -5 7 q-2 2 1 3 q14 -1 66 3 q-6 21 -16 31 q-2 2 -2 4 q1 1 4 1 q4 -1 11 -2 q7 -2 10 -3 q4 -2 4 -7 q-2 -16 -5 -24 q19 2 22 3 q1 0 4 1 q16 2 21 5 q5 2 6 -1 q1 -1 4 -4 q2 -4 3 -5 q1 -2 1 -2 q-1 -1 -2 -1 q-12 0 -46 -2 q3 -1 7 -5 q2 -1 3 -2 q3 -2 1 -5 q-2 -2 -5 -7 q-7 -11 -10 -14 q28 3 8 1 q20 2 41 4 q14 1 21 5 q7 3 10 -1 q2 -1 5 -6 q3 -3 4 -4 q1 -1 1 -3 q-1 -1 -3 -1 q-91 0 -194 -16 q-6 -2 -7 1 q-1 1 -4 6 q-1 2 -2 3 q-2 3 2 2 q40 3 76 6 q-3 17 -8 29 ZM150 87 q-29 -2 -51 -5 l2 -17 q8 1 31 3 q11 2 15 2 q2 0 4 -2 l1 -1 q3 0 6 2 q0 1 0 1 q0 4 1 12 q2 16 2 24 q-1 4 -6 4 q-18 -1 -58 -5 l2 -17 q2 0 8 1 q15 1 23 3 q6 0 12 2 q3 2 4 0 q1 0 2 -2 q2 -2 2 -3 q2 -2 0 -2 ZM111 138 l31 3 l0 1 q4 18 3 31 q-24 -1 -46 -4 q1 -1 3 -2 q13 -9 15 -12 q3 -2 1 -6 q-2 -3 -5 -9 q-2 -1 -2 -2 Z" /><glyph glyph-name="" unicode="&#x7ecf;" d="M64 194 q-1 2 0 3 q1 0 3 -1 q2 -1 5 -4 q3 -2 11 -9 q2 -1 1 -4 q-13 -30 -29 -61 q10 0 25 1 q1 3 4 8 q2 5 3 7 q7 15 5 25 q0 3 3 1 q5 -3 14 -12 q1 -1 1 -3 q-15 -31 -47 -80 q7 1 23 3 q9 1 14 2 q3 0 3 -2 q0 -2 -3 -3 q-15 -6 -59 -19 q-3 -1 -4 -1 q-3 0 -4 1 q-1 2 -2 5 q-3 7 -4 10 q0 2 2 2 q7 -1 19 0 q14 23 27 46 q-7 -1 -19 -2 q-11 -2 -17 -2 q-2 0 -4 2 q-4 5 -6 11 q-1 2 1 1 q5 0 11 -1 q11 22 20 46 q5 15 3 30 ZM174 59 q0 0 1 0 q2 -1 1 -4 q-4 -9 -4 -45 q7 1 19 2 q7 1 9 1 q11 1 24 5 q1 0 2 0 q2 1 3 0 q10 -6 16 -13 q1 -3 -3 -4 q-20 2 -70 -1 q-48 -2 -70 -7 q-3 -1 -5 2 q-6 5 -8 9 q-2 2 1 2 q13 0 45 2 q15 1 22 1 q3 41 -2 55 q-23 -2 -28 -3 q-2 0 -2 1 q-2 1 -5 5 q-2 2 -3 3 q-1 1 -1 2 q0 1 2 1 q32 -1 84 7 q2 1 4 -1 q3 -4 5 -9 q1 -3 -2 -3 q-16 1 -45 -2 q2 -1 5 -3 q4 -2 5 -3 ZM119 171 q22 0 46 5 q18 3 25 7 q4 2 7 0 q5 -4 8 -9 q2 -3 0 -6 q-21 -30 -54 -64 q-26 -24 -51 -22 q-2 1 -2 2 q0 1 2 2 q24 10 44 30 q29 30 39 49 q1 1 1 2 q-1 1 -3 1 q-21 -2 -47 -10 q-5 -1 -8 2 q0 -1 -1 0 q-2 2 -7 8 q-2 2 -1 2 q0 1 2 1 ZM20 14 q-1 2 1 2 q10 -1 20 3 q47 15 64 18 q3 1 4 -1 q0 -2 -3 -3 q-24 -13 -72 -33 q-3 0 -4 0 q-3 3 -7 9 q-2 4 -3 5 ZM183 126 q28 -7 48 -16 q6 -1 2 -22 q-1 -3 -2 -3 q-1 0 -3 2 q-28 21 -46 37 q-2 3 1 2 Z" /><glyph glyph-name="" unicode="&#x81ea;" d="M88 -6 q0 -7 -2 -10 q-4 -6 -7 -2 q-11 10 -9 17 q3 23 4 65 q1 41 -1 61 q-1 15 -6 22 q-1 2 0 3 q1 1 2 0 q5 -3 14 -8 q5 -3 7 -4 q3 0 7 0 q13 22 18 42 q5 17 3 29 q-1 4 0 4 q2 1 4 -1 q2 -2 7 -7 q10 -9 14 -14 q1 -1 -1 -3 q-10 -10 -14 -18 q-7 -12 -20 -31 q21 1 47 4 q12 3 15 6 q2 2 6 0 q1 -1 4 -2 q8 -5 10 -7 q3 -1 1 -6 q-1 -6 -2 -23 q-1 -7 -1 -11 q-3 -55 1 -111 q0 -8 -10 -22 q-4 -4 -7 1 q0 18 -11 32 q-2 0 -2 2 q-39 0 -63 -2 q-1 0 -4 0 q-1 0 -4 3 q0 -3 0 -9 ZM139 58 q4 1 7 -2 q4 -9 -2 -9 q-13 1 -46 -3 q-1 0 -4 1 q-3 3 -5 6 q0 -21 -1 -42 q32 2 66 5 q5 2 7 -3 q4 -7 1 -9 q7 -1 7 3 q1 19 1 70 q1 44 0 53 q0 4 -6 4 q-39 -1 -69 -5 q-1 0 -3 2 q-2 1 -3 2 l0 -36 q22 0 48 5 q4 2 7 -3 q3 -5 2 -7 q0 -2 -4 -1 q-15 0 -47 -4 q-2 0 -3 1 q-1 2 -3 3 l0 -36 q14 1 44 4 q4 1 6 1 Z" /><glyph glyph-name="" unicode="&#x8bb0;" d="M142 34 q1 -19 20 -22 q18 -3 39 -1 q28 1 39 30 q2 4 3 4 q1 -1 1 -5 q-2 -18 -5 -37 q1 -3 -7 -3 q-48 -5 -79 0 q-25 4 -26 33 q-2 16 0 55 q0 4 0 6 q1 11 -3 21 q-1 3 0 4 q1 1 4 0 q1 0 2 -1 q6 -3 10 -5 q21 2 38 5 q0 1 1 2 q6 29 7 37 q2 6 -3 5 q-28 -3 -48 -9 q-5 0 -7 2 q-4 3 -7 8 q-2 2 -1 2 q0 1 2 1 q34 1 50 6 q12 3 16 5 q4 3 8 0 q2 -1 6 -5 q5 -4 6 -6 q3 -2 1 -5 q-9 -15 -16 -45 q3 -3 5 -5 q1 -2 1 -3 q-1 -2 -3 -1 q-16 0 -50 -4 q-6 -41 -4 -69 ZM54 20 q8 7 9 22 q4 44 4 64 q0 2 -3 2 q-16 -3 -34 -10 q-2 -1 -5 2 q-5 6 -7 9 q0 2 1 2 q35 3 49 13 q2 2 5 0 q2 -1 6 -4 q6 -4 7 -5 q3 -2 1 -5 q-4 -5 -5 -27 q-3 -21 -3 -49 q1 0 2 1 q19 12 28 19 q3 2 5 1 q2 -2 0 -4 q-38 -37 -45 -49 q-3 -2 -7 0 q-2 2 -6 7 q-3 4 -4 5 q-2 3 2 6 ZM64 195 q18 -5 30 -12 q3 -1 3 -5 q-2 -12 -7 -30 q-2 -4 -4 -4 q-2 0 -3 5 q-6 32 -21 42 q-1 1 -1 3 q1 2 3 1 Z" /><glyph glyph-name="" unicode="&#x8bd5;" d="M153 210 q6 -3 16 -10 q5 -3 8 -5 q3 -1 2 -4 q-3 -19 -2 -49 q1 -3 1 -6 q3 1 8 2 q4 1 12 3 q2 0 4 -1 q1 -1 3 -3 q3 -4 6 -6 q1 -3 -1 -4 q-12 0 -31 -3 q7 -79 41 -111 q1 -1 2 -2 q2 -1 5 -2 q2 -2 3 1 q7 11 12 22 q3 3 4 -1 q-4 -30 -4 -46 q-1 -6 -6 -5 q-9 3 -18 10 q-42 34 -55 132 q-34 -5 -64 -10 q-1 0 -3 1 q-2 2 -5 8 q-1 2 -1 2 q1 1 2 1 q26 1 70 9 q0 4 0 7 q-5 49 -12 68 q0 3 3 2 ZM76 108 q-4 -5 -5 -27 q-1 -5 -2 -28 q-1 -13 -1 -18 q14 8 27 19 q3 2 4 1 q1 -2 -1 -5 q-25 -29 -47 -48 q-3 -2 -6 0 q-3 3 -8 9 q1 -1 -1 2 q-2 3 2 5 q2 1 6 3 q6 2 9 4 q4 52 4 79 q0 2 -3 2 q-8 -1 -32 -9 q-3 -2 -5 0 q0 -1 -1 0 q-1 1 -5 6 q-2 3 -2 3 q-2 3 1 2 q31 3 48 13 q1 2 4 0 q3 -2 12 -7 q1 -2 2 -2 q2 -2 0 -4 ZM89 20 q-3 4 1 5 q20 2 37 6 q1 20 1 44 q-9 -1 -14 -3 q-4 0 -5 1 q-4 1 -6 6 q-3 4 0 4 q24 1 52 8 q1 1 4 -2 q2 -2 4 -6 q1 -2 1 -2 q-1 -1 -2 -1 q-9 -1 -22 -3 l0 -42 q4 1 11 3 q8 1 11 2 q3 2 4 0 q1 -1 3 -3 q1 -2 2 -3 q1 -1 1 -3 q-1 -1 -3 -1 q-38 -7 -66 -18 q-3 -1 -6 1 q-3 4 -8 7 ZM62 191 q-1 3 1 2 q15 -3 26 -13 q3 -3 3 -6 q-2 -14 -8 -23 q-4 -2 -6 1 q-6 24 -16 39 ZM194 185 q-1 1 -1 2 q0 1 2 1 q13 -6 25 -13 q3 -2 2 -7 q-2 -6 -5 -13 q-1 -2 -2 -3 q-4 -3 -5 1 q-4 16 -16 32 Z" /><glyph glyph-name="" unicode="&#x8bdd;" d="M199 5 q-26 0 -62 -5 q0 0 0 -3 q-1 -11 -8 -14 q-7 2 -8 12 q4 45 -9 66 q-2 3 2 2 q1 0 4 -1 q5 -1 9 -4 q2 0 5 1 q8 1 17 1 q3 24 3 44 q-34 -6 -46 -9 q-3 0 -6 2 q-5 5 -7 9 q-1 2 0 2 q0 1 2 1 q22 0 58 5 q0 9 0 17 q1 15 -5 27 q-16 -3 -33 -5 q-4 -1 -4 1 q0 2 4 3 q33 10 51 23 q9 6 8 13 q1 3 4 2 q4 -3 11 -8 q7 -5 11 -8 q3 -2 -1 -5 q-21 -9 -44 -14 q9 -4 15 -8 q2 -1 1 -4 q-2 -10 -2 -19 q0 -6 -1 -13 q12 3 25 4 q13 2 30 8 q3 1 4 1 q3 2 5 0 q4 -4 10 -12 q2 -3 -3 -4 q-23 0 -71 -7 q-1 -11 -3 -31 q-1 -8 -1 -12 q1 0 1 0 q25 4 25 6 q4 3 7 0 q5 -3 11 -9 q5 -4 2 -8 q-9 -11 -14 -37 q3 -3 5 -6 q1 -2 1 -3 q-1 -2 -3 -1 ZM47 14 q8 7 9 21 q3 30 3 69 q0 2 -3 2 q-11 -2 -31 -9 q-2 -1 -4 0 q2 -1 -1 1 q-5 6 -7 9 q0 2 1 2 q32 3 47 12 q1 2 4 0 q8 -4 13 -9 q2 -1 0 -4 q-4 -9 -5 -26 q-1 -7 -2 -28 q-1 -20 -1 -27 q8 5 32 21 q3 2 4 0 q1 -2 -1 -4 q-25 -25 -44 -45 q-3 -5 -6 0 q-6 4 -9 9 q-3 3 1 6 ZM133 50 q3 -17 3 -40 q23 3 45 5 q4 18 7 38 q0 5 -5 3 q-26 -2 -50 -6 ZM58 194 q-1 3 2 3 q11 -2 28 -13 q3 -3 3 -7 q-5 -17 -9 -24 q-1 -2 -2 -2 q-2 0 -3 2 q-7 26 -19 41 Z" /><glyph glyph-name="" unicode="&#x8bf4;" d="M129 75 q-1 -2 -4 -1 q-5 1 -8 7 q-1 1 -1 4 q0 9 -3 26 q-2 12 -7 27 q-1 3 2 2 q5 0 15 -4 q40 4 54 7 q4 0 13 3 q2 1 3 1 q3 2 5 0 q6 -4 11 -12 q2 -1 0 -3 q-9 -10 -16 -35 q2 -2 5 -5 q4 -5 -1 -6 q-7 1 -26 -1 q15 2 -2 0 q8 -4 11 -7 q3 -1 2 -4 q-3 -6 -5 -14 q-5 -25 -5 -41 q-4 -22 20 -19 q38 -8 54 43 q1 2 2 2 q1 0 1 -2 q-1 -7 -2 -27 q-1 -11 -1 -16 q0 -2 -1 -4 q-4 -6 -14 -7 q-27 -5 -51 -1 q-26 1 -21 32 q4 42 4 65 q-11 -2 -22 -2 q1 0 2 -1 q6 -5 9 -9 q2 -1 0 -6 q-23 -66 -78 -83 q-3 -1 -1 2 q44 31 59 72 q5 12 4 24 l-7 -1 q0 -3 0 -6 ZM41 12 q8 3 17 9 q1 36 4 83 q1 2 -5 2 q-18 -3 -34 -12 q-4 -2 -6 1 q-1 1 -4 6 q-4 5 -5 6 q24 2 39 8 q7 2 12 6 q1 1 2 1 q2 3 5 1 q3 -1 11 -8 q3 -1 4 -2 q0 0 1 -1 q2 -3 0 -5 q-6 -5 -7 -23 q0 -4 -1 -14 q-1 -6 -3 -42 q23 15 36 26 q5 0 3 -3 q-31 -34 -56 -53 q-2 -2 -6 1 q-3 1 -6 6 q-1 1 -2 2 q-2 3 1 5 ZM185 132 q-10 0 -51 -5 q-6 -1 -9 -1 q2 -14 3 -32 q0 -2 1 -2 q31 2 49 5 q0 1 1 4 q7 23 8 29 q0 3 -2 2 ZM196 189 q2 -2 1 -4 q-12 -23 -32 -41 q-3 -2 -4 -1 q-1 0 0 2 q8 14 12 34 q2 13 -3 25 q-1 3 2 2 q14 -8 24 -17 ZM54 184 q-2 3 -1 4 q0 2 3 1 q8 -1 25 -6 q3 -1 3 -8 q0 -17 -3 -30 q-1 -4 -4 -4 q-3 0 -4 4 q-4 23 -19 39 ZM117 184 q-1 3 2 2 q8 -4 22 -14 q1 -1 2 -1 q5 -3 3 -8 q-2 -10 -5 -16 q-4 -3 -6 0 q-5 16 -18 37 Z" /><glyph glyph-name="" unicode="&#x8def;" d="M105 119 q-4 0 -28 -2 q3 -1 6 -3 q2 -2 2 -5 q0 -17 -1 -29 q4 2 13 4 q-2 0 3 1 q5 2 6 -1 q2 -3 3 -6 q1 -2 0 -3 q0 0 -2 0 q-13 -1 -23 -4 l-3 -36 l28 8 q3 1 3 0 q0 -1 -2 -3 q-31 -15 -87 -35 q-4 -2 -6 1 q-3 3 -7 9 q0 3 2 4 q4 0 11 2 q10 1 15 2 q1 29 -2 48 q-1 9 -5 15 q0 3 2 3 q1 0 3 -1 q4 -2 10 -6 q1 -1 2 -4 q1 -1 1 -2 q1 -15 1 -50 q10 3 19 5 q1 16 2 41 q1 16 1 21 q0 15 -3 24 l-8 -1 q0 -6 0 -12 q-2 -4 -6 -1 q-8 9 -8 16 q2 37 -9 53 q-1 3 1 3 q9 -1 14 -3 q18 2 27 3 q8 1 13 3 q4 2 7 0 q4 -2 9 -7 q3 -3 0 -8 q-6 -5 -10 -34 q3 1 5 -2 q4 -6 1 -8 ZM154 202 q9 -4 17 -9 q3 -2 1 -5 q-7 -19 -15 -30 q11 0 20 2 q6 2 10 3 q2 2 4 0 q0 0 2 -2 q4 -3 5 -4 q5 -4 0 -7 q-4 -5 -9 -13 q-8 -15 -19 -30 q9 -8 30 -24 q6 -5 9 -7 q19 -12 41 -18 q2 0 2 -1 q1 -2 -1 -2 q-1 0 -3 -1 q-15 -4 -24 -5 q-3 -1 -7 1 q-19 17 -50 46 q-2 2 -3 3 q-14 -18 -29 -34 q-18 -15 -36 -19 q-3 0 -1 2 q30 21 58 60 q-11 9 -20 20 q-4 -5 -13 -13 q-4 -4 -6 -6 q-3 -2 -4 -1 q-1 1 1 4 q23 31 34 58 q9 18 4 30 q-1 4 2 2 ZM197 0 q-33 0 -53 -3 q0 -2 0 -5 q-1 -3 -1 -4 q-2 -4 -5 -1 q-7 8 -7 14 q4 37 -4 55 q-1 3 1 2 q4 -1 9 -3 q4 -1 5 -1 q13 1 29 4 q1 0 2 0 q5 0 11 2 q1 1 2 1 q4 2 8 -1 q0 0 3 -2 q5 -4 6 -5 q3 -3 0 -8 q-7 -11 -11 -35 q3 0 4 -2 q5 -8 1 -8 ZM146 45 q0 -23 -1 -41 q4 0 12 2 q14 1 21 2 q2 7 4 30 q1 4 1 6 q0 5 -4 5 q-9 -1 -24 -3 q-6 -1 -9 -1 ZM58 164 q3 -22 3 -39 q9 0 23 2 q3 11 6 35 q0 5 -4 4 q-1 0 -4 0 q-13 -2 -24 -2 ZM180 149 q1 3 -2 3 q-14 -3 -25 -1 q-2 -2 -6 -8 q-4 -5 -6 -8 q10 -10 20 -20 q5 8 14 25 q3 6 5 9 Z" /><glyph glyph-name="" unicode="&#x9009;" d="M124 177 q9 -6 13 -10 q1 -1 1 -4 q-1 -2 -3 -6 q-1 -3 -5 -10 q7 0 19 2 q-1 0 2 0 q0 40 -2 49 q-1 2 0 3 q1 1 3 0 q10 -5 15 -8 q2 -1 2 -3 q-3 -12 -4 -39 q3 1 9 2 q10 3 13 4 q3 2 3 0 q3 -2 7 -7 q1 -1 2 -2 q1 -4 -2 -4 q-5 0 -18 -1 q-9 -1 -15 -1 q0 -15 -1 -30 q4 1 7 1 q21 3 32 7 q4 2 6 0 q7 -3 10 -7 q4 -6 -2 -7 q-39 0 -78 -6 q2 -1 5 -5 q4 -4 5 -6 q1 -1 1 -3 q-21 -50 -64 -58 q-2 0 -3 1 q0 1 1 2 q31 16 46 49 q5 9 3 19 q-17 -2 -28 -5 q-1 0 -3 1 q-2 0 -2 0 q-3 3 -6 6 q-2 2 -3 3 q-1 2 1 3 q22 0 59 4 q1 16 1 29 q-10 -1 -27 -3 q-9 -14 -23 -23 q-5 -1 -2 2 q13 15 20 37 q3 11 2 21 q-1 3 0 3 q0 1 3 0 ZM251 -6 q-5 -2 -15 -6 q-17 -8 -27 -13 q-8 -4 -16 -1 q-69 21 -134 47 q-7 3 -12 0 q-3 -1 -9 -3 q-9 -3 -14 -5 q-4 -1 -6 2 q-2 7 -7 11 q-2 2 -1 3 q0 1 2 1 q20 -1 38 0 q3 0 6 0 q5 7 9 18 q0 1 0 2 q1 4 0 5 q-3 5 -7 9 q-4 5 -3 21 q0 3 0 5 q1 3 -3 4 q-5 2 -12 0 q-4 -2 -7 1 q-3 2 -7 5 q-2 1 -3 2 q-2 1 -2 3 q1 3 3 2 q19 -4 34 3 q3 2 5 0 q1 -1 4 -3 q2 -2 3 -3 q2 -1 1 -3 q-3 -9 -4 -19 q-1 -5 2 -8 q7 -9 11 -15 q4 -7 -2 -13 q-5 -8 -15 -18 q69 -26 125 -30 q33 -5 62 0 q3 0 4 -2 q0 -1 -3 -2 ZM163 101 q0 2 3 1 q10 -5 13 -8 q4 -1 1 -6 q-7 -19 -9 -37 q-5 -20 12 -21 q11 0 19 2 q11 0 24 30 q1 2 2 2 q1 0 1 -2 q-1 -5 -2 -18 q-1 -11 -1 -16 q0 -5 -3 -5 q-29 -6 -51 -3 q-21 1 -14 35 q0 2 1 6 q5 26 4 40 ZM43 177 q20 -7 30 -14 q3 -2 2 -5 q-3 -7 -9 -16 q-6 -5 -9 1 q-5 17 -15 29 q-2 3 -2 4 q1 2 3 1 Z" /><glyph glyph-name="" unicode="&#x9700;" d="M167 94 q5 1 8 -2 q1 -1 4 -5 q-1 2 1 -2 q1 -3 -2 -4 q-26 0 -55 -3 q4 -3 7 -4 q1 -1 1 -4 q-2 -4 -6 -10 q-4 -7 -6 -10 q26 1 50 5 q13 1 22 5 q3 0 4 -1 q5 -4 15 -14 q0 0 0 -1 q1 -1 0 -2 q-4 -6 -6 -16 q-4 -23 -7 -32 q-5 -14 -14 -22 q-4 -3 -7 1 q-2 10 -8 20 q-1 2 -1 3 q1 1 2 0 q13 -2 15 5 q5 19 7 43 q0 3 -3 2 q-6 0 -28 -2 q2 1 -4 0 q-2 -31 -4 -43 q-2 -18 -7 -24 q-3 -1 -4 1 q-3 14 -2 29 q3 12 3 36 q-14 -1 -29 -3 q0 -8 1 -24 q0 -10 0 -12 q-1 -17 -9 -20 q-4 2 -4 13 q0 25 -1 41 q-17 -1 -29 -3 q0 -18 1 -43 q1 -9 1 -14 q-1 -6 -6 -2 q-7 7 -11 15 q0 2 0 5 q3 9 2 24 q0 13 -5 31 q-1 1 2 1 q8 -4 13 -8 q3 0 10 1 q19 2 31 3 q6 17 5 29 q-7 -1 -18 -3 q-11 -1 -15 -2 q-3 0 -5 2 q-3 3 -4 7 q-1 3 1 2 q27 0 74 7 q1 0 2 0 q13 2 18 4 ZM176 189 q-6 -1 -26 -2 q-18 -2 -27 -3 q2 -1 6 -3 q1 -1 2 -1 q3 -1 2 -6 q-1 -4 -1 -10 q31 3 51 5 q13 2 18 5 q5 3 10 -1 q12 -16 17 -22 q3 -5 -3 -6 q-1 0 -4 -1 q-16 -2 -23 -2 q-4 0 -4 0 q0 1 1 3 q0 1 1 3 q3 5 3 9 q1 4 -4 4 q-4 0 -16 -1 q-30 -3 -48 -4 q0 -20 1 -46 q-1 -13 -8 -15 q-7 3 -7 18 l0 1 q-15 -10 -45 -25 q-3 -2 -5 1 q-2 1 -6 5 q-3 3 -5 4 q-1 2 -1 2 q1 1 2 1 q2 0 5 1 q7 1 11 2 q26 7 44 13 q1 20 1 36 q-1 0 -2 0 q-25 -2 -37 -4 q-3 0 -8 0 q-8 -1 -13 0 q-3 -24 -10 -44 q-3 -3 -6 -1 q-5 2 -8 5 q-3 3 -2 5 q15 24 11 56 q0 3 3 1 q11 -6 13 -15 q20 1 58 5 q0 16 -2 22 q-9 -2 -26 -3 q-5 -1 -7 -1 q-6 -3 -12 8 q-1 2 0 3 q0 0 2 0 q19 -3 75 5 q9 1 19 5 q4 2 7 0 q1 -1 3 -3 q2 -3 3 -4 q2 -3 1 -4 q-1 -1 -4 -1 ZM135 119 q-2 1 -2 2 q1 2 4 1 q1 0 3 0 q2 -1 4 -1 q18 17 19 28 q0 2 1 2 q2 1 4 -1 q1 -1 6 -8 q-2 2 2 -3 q2 -1 -1 -4 q-11 -9 -26 -16 q23 -5 35 -10 q0 0 1 0 q3 -1 3 -4 q0 -2 -1 -5 q-1 -4 -2 -6 q-1 -3 -3 -3 q-1 0 -3 2 q-12 10 -44 26 ZM78 140 q8 0 17 -2 q3 -1 3 -4 q0 -4 -2 -17 q-1 -3 -1 -4 q-4 2 -7 3 q-2 0 -2 3 q-3 14 -10 19 q-1 3 2 2 Z" /></font>
</defs>
</svg>
