<?xml version="1.0" encoding="utf-8"?>
<!-- Generator: Adobe Illustrator 19.0.0, SVG Export Plug-In . SVG Version: 6.00 Build 0)  -->
<svg version="1.1" id="图层_1" xmlns="http://www.w3.org/2000/svg" xmlns:xlink="http://www.w3.org/1999/xlink" x="0px" y="0px"
	 viewBox="-540 253.8 298.9 298.9" style="enable-background:new -540 253.8 298.9 298.9;" xml:space="preserve">
<style type="text/css">
	.st0{fill:#FFFFFF;}
	.st1{fill:#975A58;}
	.st2{opacity:0.5;fill:#975A58;enable-background:new    ;}
	.st3{opacity:0.5;enable-background:new    ;}
</style>
<rect x="-515.5" y="278.3" transform="matrix(0.9755 0.2202 -0.2202 0.9755 79.2176 95.8808)" class="st0" width="250" height="250"/>
<path id="XMLID_13_" class="st1" d="M-418.3,283.5v1c0.1,4,0.1,5.2,0.1,5.5c0,6.9-0.9,14.2-2.6,21.9c-1.7,7.7-4.2,15.2-7.4,22.5
	c-3.2,7.2-7.1,14.1-11.6,20.5c-2,2.9-3.7,5-5.1,6.3c-1.5,1.5-2.4,1.6-2.6,1.6c-0.1,0-0.3,0-0.5-0.8c-0.2-0.8-0.4-2.6-0.4-6.9
	c0.1-3.8,0.2-9.8,0.4-17.8c0.1-3.8,0.3-7.4,0.4-10.7s0.3-7.1,0.6-11.1c0.3-4.1,0.5-7.2,0.7-9.3l2-20.9l0.4-4l-9.5,4.1l-0.3,2.4
	c-0.8,5.6-1.5,10-2.1,13c-0.6,3-1.4,6.3-2.4,9.9s-2,6.8-3,9.5c-2.1,5.8-4.6,11.8-7.6,17.7c-2.9,5.9-5.9,11.1-8.7,15.3
	c-2.3,3.5-4.2,6-5.6,7.5c-1.6,1.7-2.6,1.9-3,1.9c-0.2,0-0.2,0-0.4-0.3c-0.1-0.4-0.4-1.3-0.4-3.8c0-1,0-1.7,0.1-2.3l2.1-53.6
	c0-1.3,0.1-3,0.1-5.1c0.1-12.7-3.8-19.2-11.5-19.2c-3,0-5.9,1.3-8.4,3.9c-2.4,2.4-4.5,6.1-6.3,10.8c-1.7,4.7-3.1,10.3-4.1,16.6
	l-0.1,1l7.7,5.2l0.3-2.4c1-7.2,2.5-14,4.4-20.2c1.2-3.9,2.3-6.6,3.4-8.1c1-1.2,2-1.8,3.2-1.8c1.8,0,2.7,2.3,2.7,6.8
	c0,1.5-0.1,3.5-0.3,6l-2.4,62v2c0,3,0.2,4.9,0.4,6c0.8,3.4,3.1,5.2,6.4,5.2c2.7,0,5.5-1.6,8.2-4.8c4.4-5,8.9-11.6,13.2-19.6
	c4.6-8.3,8.4-16.8,11.4-25.2c-0.1,2.4-0.3,5-0.4,7.9c-0.4,8.6-0.5,15.1-0.5,19.1c0,1.9-0.1,4.7-0.1,8.5c0,5,0.4,8.4,1.3,10.4
	c1,2.3,3,3.5,5.6,3.5c1.4,0,2.8-0.4,4.3-1.3c1.3-0.8,2.8-2.1,4.5-3.9c2.6-2.7,5.5-6.6,8.7-11.8c3.1-5.1,6.2-10.8,9.1-16.8
	c9.5-20.1,14.4-38.8,14.5-55.4v-2.3L-418.3,283.5z"/>
<path id="XMLID_48_" class="st2" d="M-402.2,293.4c-0.1,1.3-0.3,2.7-0.8,3.9l132.1,29.7l-43,191.2l-191.2-43l21.8-96.9
	c-0.9,0.2-1.9,0.3-2.9,0.3c-0.4,0-0.9,0-1.3-0.1l-22.4,99.7l199,44.8l44.8-199L-402.2,293.4z"/>
<g id="XMLID_35_">
	<path id="XMLID_36_" class="st1" d="M-432.3,444.4c-1.4-1-3.1-1.5-5-1.5c-2.1,0-4.1,0.5-6,1.5c-1.9,1-3.4,2.4-4.6,4
		c-1.2,1.7-1.8,3.6-1.8,5.6c0,1.6,0.5,3.1,1.4,4.4c0.8,1.1,2.4,2.6,4.6,4.4c2.8,2.3,3.8,3.3,4.2,3.8s0.6,1.2,0.6,2
		c0,1.1-0.5,2.1-1.5,3.1c-1,0.9-2.2,1.4-3.7,1.4c-2.9,0-4.9-1.5-6.3-4.8l-0.9-2.2l-5.4,6.4l0.7,1c2.5,3.4,5.7,5.1,9.5,5.1
		c2.3,0,4.5-0.6,6.6-1.7c2.1-1.1,3.7-2.6,5-4.5c1.2-1.9,1.9-4,1.9-6.2c0-3-1.8-6-5.2-8.7l-3.2-2.6c-1.5-1.2-2.3-2.3-2.3-3.4
		c0-0.5,0.1-1.3,1.2-2.2c0.8-0.7,1.8-1.1,3-1.1c1.3,0,2.4,0.4,3.2,1.1s1.3,1.8,1.5,3.1l0.3,2l1.8-0.8c2-0.9,3-2.5,3-4.8
		C-430,447-430.8,445.5-432.3,444.4z"/>
	<path id="XMLID_86_" class="st1" d="M-407.7,425.3l-8.7,3.4l-3,14.4h-5.3l-1,5h5.3l-3.2,15.9c-0.6,2.8-0.9,4.9-0.9,6.4
		c0,2.2,0.7,4.1,2,5.6c1.3,1.5,3.1,2.2,5.3,2.2c1.7,0,3.5-0.6,5.2-1.9c1.6-1.2,3.4-3.1,5.7-5.8l0.9-1.1l-2.8-2.8l-1.8,1.7
		c-2,2.1-3,3-3.5,3.3c-0.6,0.4-1.2,0.6-1.9,0.6c-0.6,0-1-0.2-1.3-0.6c-0.4-0.5-0.6-1.3-0.6-2.3c0-0.5,0.1-1.6,0.6-4l3.9-17.2h8.9
		l1-5h-8.9L-407.7,425.3z"/>
	<path id="XMLID_96_" class="st1" d="M-382.8,443c-3.2,0-6.5,1.1-9.5,3.4c-3,2.2-5.5,5-7.3,8.5c-1.9,3.5-2.9,7.1-2.9,10.6
		c0,3.8,1.1,7,3.3,9.3c2.2,2.4,5.1,3.7,8.7,3.7c3.2,0,6.4-1.2,9.5-3.5c3-2.2,5.5-5.1,7.3-8.6c1.9-3.5,2.8-7.2,2.8-10.9
		c0-3.6-1.1-6.6-3.2-8.9C-376.4,444.2-379.3,443-382.8,443z M-394.6,467.2c0-2.1,0.4-4.6,1.2-7.4c0.8-2.8,1.9-5.3,3.1-7.3
		c1.1-1.7,2.2-3,3.5-3.9c1.2-0.8,2.3-1.2,3.6-1.2c1.2,0,2.2,0.5,3,1.6c0.9,1.2,1.3,2.7,1.3,4.5c0,2.3-0.4,4.9-1.1,7.6
		s-1.7,5.2-2.8,7.3c-2.1,3.9-4.5,5.9-7.1,5.9c-1.5,0-2.6-0.5-3.4-1.6C-394.2,471.4-394.6,469.6-394.6,467.2z"/>
	<path id="XMLID_99_" class="st1" d="M-344,471.1l0.9-1l-2.8-3.2l-1.1,1.1c-4.2,4.1-5.8,4.4-6.2,4.4c-0.1,0-0.2,0-0.4-0.3
		c-0.2-0.3-0.3-0.7-0.3-1.2c0-2.1,0.8-5.5,2.5-10c1.7-4.6,3.8-9.2,6.5-14l1.5-2.8h-0.7l5-7l-7.7,7h-2.3l-0.4,0.3
		c-1.2,1.1-2.7,1.5-4.6,1.5c-0.3,0-0.6,0-0.9-0.1c0.2-0.9,0.3-1.8,0.3-2.6c0-1.9-0.4-3.5-1.3-4.8c-1-1.4-2.3-2.2-3.9-2.2
		c-1.5,0-2.9,0.7-3.8,2c-0.9,1.2-1.4,2.7-1.4,4.5c0,3.3,1.4,5.8,4.1,7.7c-1.1,2.8-3,5.9-5.7,9.1l-0.9,1.1l3.2,2.9l1-1.2
		c3-3.5,5.1-7,6.4-10.4c1.4,0.2,2.7,0,3.9-0.2c-0.7,1.1-1.3,2.1-1.8,3c-1.2,2-2.2,3.9-3,5.5c-2.3,4.5-3.4,8.1-3.4,11.1
		c0,2,0.5,3.7,1.6,4.9c1.1,1.3,2.6,1.9,4.5,1.9c2,0,4.2-0.9,6.4-2.6C-346.8,473.8-345.1,472.3-344,471.1z M-360.1,441.8
		c0-0.1,0-0.2,0-0.2c0.1,0.1,0.2,0.2,0.2,0.3c0.2,0.4,0.4,0.9,0.4,1.6C-359.9,442.9-360.1,442.4-360.1,441.8z"/>
	<path id="XMLID_100_" class="st1" d="M-316.4,445.1l-4.8,21.4c-1.8,2.1-3.5,3.8-5,4.8c-1.4,1-2.6,1.5-3.6,1.5
		c-0.8,0-1.4-0.2-1.9-0.7s-0.7-1.2-0.7-2c0-0.5,0.1-1.6,0.6-3.7l6-25.1l-8.8,3.7l-3.9,20.5c-0.4,1.7-0.5,3.2-0.5,4.7
		c0,2.4,0.7,4.3,2,5.8c1.4,1.5,3.3,2.2,5.6,2.2c2.7,0,5.4-1.2,8.4-3.8l-1.4,6.3c-1,4.9-2.4,8.4-4,10.4c-1.4,1.9-3.3,2.8-5.6,2.8
		c-2.3,0-4.3-1-6.1-2.9l-1.2-1.3l-4.6,6.2l1.1,0.9c2,1.7,4.7,2.6,8.1,2.6c5.6,0,10.5-2.5,14.3-7.5c1.2-1.6,2.3-3.6,3.2-5.9
		s1.8-5.4,2.8-9.3l8.8-35.3L-316.4,445.1z"/>
</g>
<g id="XMLID_14_">
	<path id="XMLID_89_" class="st1" d="M-395.9,336.1h-2.3l-0.4,0.4c-1.2,1.1-2.7,1.6-4.6,1.6c-0.3,0-0.6,0-0.9-0.1
		c0.2-0.9,0.3-1.8,0.3-2.6c0-1.9-0.4-3.5-1.3-4.8c-1-1.4-2.3-2.2-3.9-2.2c-1.5,0-2.9,0.7-3.8,2c-0.9,1.2-1.3,2.7-1.3,4.5
		c0,3.2,1.4,5.8,4.1,7.7c-1.1,2.8-3,5.8-5.7,9.1l-0.9,1.1l3.2,2.9l1-1.2c3-3.5,5.1-7,6.4-10.4c1.4,0.2,2.7,0,3.8-0.2
		c-0.7,1.1-1.3,2-1.8,3c-1.2,2-2.2,3.9-3,5.5c-2.3,4.5-3.3,8.1-3.3,11.1c0,2,0.5,3.7,1.6,4.9c1.1,1.3,2.6,1.9,4.5,1.9
		c2,0,4.2-0.9,6.4-2.6c2.2-1.8,3.9-3.2,5-4.4l0.9-1l-2.8-3.2l-1.1,1.1c-4.2,4-5.8,4.4-6.2,4.4c-0.1,0-0.2,0-0.4-0.3
		c-0.2-0.3-0.3-0.7-0.3-1.2c0-2.1,0.8-5.5,2.5-10c1.7-4.6,3.8-9.3,6.4-14.1l1.5-2.9h-0.7l5-7L-395.9,336.1z M-408.9,334.1
		c0-0.1,0-0.2,0-0.2c0.1,0.1,0.2,0.2,0.2,0.2c0.2,0.4,0.4,0.9,0.4,1.6C-408.7,335.2-408.9,334.6-408.9,334.1z"/>
	<path id="XMLID_90_" class="st1" d="M-376.5,360.2c-3.2,3.5-4.3,3.6-4.4,3.6c0,0-0.1-0.1-0.2-0.3c-0.3-0.5-0.4-1.2-0.4-2.1
		c0-1.7,0.4-3.9,1.2-6.8l5.6-21l-9,3.7l-3.6,20c-0.5,2.5-0.7,4.3-0.7,5.5c0,2,0.5,3.8,1.4,5.2c1.3,2,3,2.4,4.1,2.4
		c1.2,0,2.5-0.6,3.7-1.7c1.1-0.9,2.6-2.6,4.7-5.1l1.6-1.7l-3.1-2.7L-376.5,360.2z"/>
	<path id="XMLID_91_" class="st1" d="M-376.4,316.1c-1.3,0-2.5,0.5-3.4,1.4c-0.9,0.9-1.4,2-1.4,3.3c0,1.3,0.5,2.4,1.4,3.3
		s2.1,1.4,3.3,1.4c1.3,0,2.4-0.5,3.3-1.4c0.9-0.9,1.4-2.1,1.4-3.4c0-1.4-0.4-2.5-1.3-3.4C-373.9,316.5-375,316.1-376.4,316.1z"/>
	<path id="XMLID_92_" class="st1" d="M-357.8,340.1h8.9l1-5h-8.9l4.1-17.7l-8.7,3.3l-3,14.3h-5.3l-1,5h5.3l-3.2,16
		c-0.6,2.8-0.9,4.9-0.9,6.4c0,2.2,0.7,4.1,2,5.6c1.3,1.5,3.1,2.2,5.3,2.2c1.7,0,3.4-0.6,5.2-1.9c1.6-1.2,3.4-3.1,5.7-5.8l0.9-1
		l-2.8-2.8l-1.8,1.8c-2,2.1-3,3-3.5,3.3c-0.6,0.4-1.2,0.6-1.9,0.6c-0.6,0-0.9-0.2-1.3-0.6c-0.4-0.5-0.6-1.3-0.6-2.3
		c0-0.5,0.1-1.7,0.6-4.1L-357.8,340.1z"/>
	<path id="XMLID_95_" class="st1" d="M-324.8,357.6l-1,1.2c-1.7,2.2-3.4,3.8-4.8,4.8c-1.4,0.9-2.7,1.4-4.2,1.4
		c-1.8,0-3.2-0.6-4.3-1.9c-1.1-1.3-1.7-3-1.7-5.1c5-2,9.1-4.4,12.1-7.1c3.4-3.1,5.1-6.3,5.1-9.6c0-1.8-0.7-3.3-1.9-4.5
		c-1.3-1.1-2.8-1.7-4.7-1.7c-2.9,0-5.9,1.2-8.7,3.7c-2.8,2.3-5.1,5.3-6.9,8.9s-2.8,7.2-2.8,10.7c0,3.6,1,6.6,3.1,8.9
		c2.1,2.3,4.9,3.5,8.3,3.5c2.8,0,5.4-0.8,7.8-2.2c2.3-1.4,4.7-3.7,7.1-6.9l0.9-1.1L-324.8,357.6z M-330.7,339.3c0.6,0,0.9,0,0.9,1.1
		c0,1.1-0.4,2.4-1.1,3.9c-0.8,1.5-1.9,3-3.2,4.4c-1.5,1.5-3.6,3-6.1,4.3c0.7-3.1,1.9-6,3.6-8.7C-334.5,341-332.5,339.3-330.7,339.3z
		"/>
</g>
<g id="XMLID_2_">
</g>
<g id="XMLID_8_">
</g>
<g id="XMLID_10_">
</g>
<g id="XMLID_11_">
</g>
<g id="XMLID_17_">
</g>
<g id="XMLID_18_">
</g>
<g id="XMLID_19_">
</g>
<g id="XMLID_20_">
</g>
<g id="XMLID_21_">
</g>
<g id="XMLID_22_">
</g>
<g id="XMLID_23_">
</g>
<g id="XMLID_24_">
</g>
<g id="XMLID_30_">
</g>
<g id="XMLID_31_">
</g>
<g id="XMLID_32_">
</g>
<g id="XMLID_1_" class="st3">
	<path class="st1" d="M-415.3,390.3h6.7c1.8,0,3.4,0.7,4.7,2c1.3,1.3,2,2.9,2,4.7v10c0,1.8-0.7,3.4-2,4.7c-1.3,1.3-2.9,2-4.7,2h-6.7
		c-1.8,0-3.4-0.7-4.7-2c-1.3-1.3-2-2.9-2-4.7v-10c0-1.8,0.7-3.4,2-4.7C-418.6,391-417.1,390.3-415.3,390.3z M-415.3,397v10
		c0,0.9,0.3,1.7,1,2.3c0.7,0.7,1.4,1,2.4,1c0.9,0,1.7-0.3,2.4-1c0.7-0.7,1-1.4,1-2.3v-10c0-0.9-0.3-1.7-1-2.4c-0.7-0.7-1.4-1-2.4-1
		c-0.9,0-1.7,0.3-2.4,1S-415.3,396.1-415.3,397z"/>
	<path class="st1" d="M-376.1,390.3v23.3h-6.7v-3.3c-0.3,2.2-1.4,3.3-3.3,3.3h-3.3c-1.8,0-3.4-0.7-4.7-2c-1.3-1.3-2-2.9-2-4.7v-16.7
		h6.7V407c0,0.9,0.3,1.7,1,2.3c0.7,0.7,1.4,1,2.4,1c0.9,0,1.7-0.3,2.4-1c0.7-0.7,1-1.4,1-2.3v-16.7H-376.1z"/>
	<path class="st1" d="M-363.6,413.6h-6.7v-23.3h6.7v6.7c0.3-2.2,0.9-3.9,2.1-5c1.1-1.1,2.7-1.7,4.6-1.7h3.3v6.7h-6.7
		c-0.9,0-1.7,0.3-2.4,1c-0.7,0.7-1,1.4-1,2.3V413.6z"/>
</g>
</svg>
